<?xml version="1.0" encoding="utf-8"?>
<!-- Generator: Adobe Illustrator 27.5.0, SVG Export Plug-In . SVG Version: 6.00 Build 0)  -->
<svg version="1.1" id="Ebene_1" xmlns="http://www.w3.org/2000/svg" xmlns:xlink="http://www.w3.org/1999/xlink" x="0px" y="0px"
	 viewBox="0 0 24 24" style="enable-background:new 0 0 24 24;" xml:space="preserve">
<style type="text/css">
	.st0{fill:#E3E3E3;}
</style>
<path class="st0" d="M11,16.7c0-0.4,0.3-0.8,0.8-0.8h9.5c0.4,0,0.8,0.3,0.8,0.8s-0.3,0.8-0.8,0.8h-9.5C11.3,17.5,11,17.2,11,16.7z
	 M2,11.7C2,11.3,2.3,11,2.8,11h18.5c0.4,0,0.8,0.3,0.8,0.8s-0.3,0.8-0.8,0.8H2.8C2.3,12.5,2,12.2,2,11.7z M6,6.7C6,6.3,6.3,6,6.8,6
	h14.5C21.7,6,22,6.3,22,6.7s-0.3,0.8-0.8,0.8H6.8C6.3,7.5,6,7.2,6,6.7z"/>
</svg>
