<?xml version="1.0" encoding="UTF-8"?>
<svg xmlns="http://www.w3.org/2000/svg" xmlns:xlink="http://www.w3.org/1999/xlink" viewBox="0 0 613.5 360.81">
  <defs>
    <style>
      .cls-1 {
        fill: url(#_Áĺçűě_ííűé_ăđŕäčĺíň_24);
      }

      .cls-2 {
        fill: url(#_Áĺçűě_ííűé_ăđŕäčĺíň_2);
      }

      .cls-3 {
        fill: #fff;
      }

      .cls-4 {
        fill: #0f054c;
      }

      .cls-5 {
        opacity: .51;
      }

      .cls-6, .cls-7 {
        opacity: .5;
      }

      .cls-8 {
        opacity: .1;
      }

      .cls-8, .cls-9 {
        fill: #42e8e0;
      }

      .cls-10 {
        fill: #24126a;
      }

      .cls-11 {
        opacity: .9;
      }

      .cls-12 {
        fill: url(#_Áĺçűě_ííűé_ăđŕäčĺíň_24-3);
      }

      .cls-13 {
        isolation: isolate;
      }

      .cls-14 {
        fill: #080344;
      }

      .cls-15 {
        fill: url(#_Áĺçűě_ííűé_ăđŕäčĺíň_24-2);
      }

      .cls-16, .cls-17 {
        opacity: .8;
      }

      .cls-17 {
        fill: url(#_Áĺçűě_ííűé_ăđŕäčĺíň_19);
      }

      .cls-18 {
        opacity: .15;
      }

      .cls-7 {
        fill: url(#_Áĺçűě_ííűé_ăđŕäčĺíň_21);
        mix-blend-mode: lighten;
      }

      .cls-19 {
        fill: url(#_Áĺçűě_ííűé_ăđŕäčĺíň_2-3);
      }

      .cls-20 {
        clip-path: url(#clippath);
      }

      .cls-21 {
        fill: none;
      }

      .cls-22 {
        fill: #453c9e;
      }

      .cls-23 {
        opacity: .67;
      }

      .cls-24 {
        fill: url(#_Áĺçűě_ííűé_ăđŕäčĺíň_2-2);
      }
    </style>
    <radialGradient id="_Áĺçűě_ííűé_ăđŕäčĺíň_19" data-name="Áĺçűě˙ííűé ăđŕäčĺíň 19" cx="-13" cy="54.41" fx="-13" fy="54.41" r="439.34" gradientTransform="translate(600) rotate(-180) scale(1 -1)" gradientUnits="userSpaceOnUse">
      <stop offset="0" stop-color="#ff2c9c"/>
      <stop offset=".03" stop-color="#f52e9f"/>
      <stop offset=".2" stop-color="#c53eb0"/>
      <stop offset=".37" stop-color="#9d4abe"/>
      <stop offset=".54" stop-color="#7e54c8"/>
      <stop offset=".7" stop-color="#685bd0"/>
      <stop offset=".86" stop-color="#5b5fd5"/>
      <stop offset="1" stop-color="#5761d7"/>
    </radialGradient>
    <linearGradient id="_Áĺçűě_ííűé_ăđŕäčĺíň_2" data-name="Áĺçűě˙ííűé ăđŕäčĺíň 2" x1="11.21" y1="127.92" x2="167.54" y2="127.92" gradientTransform="translate(560.71) rotate(-180) scale(1 -1)" gradientUnits="userSpaceOnUse">
      <stop offset="0" stop-color="#c0bff6"/>
      <stop offset=".29" stop-color="#c4c3f6"/>
      <stop offset=".64" stop-color="#d2d2f9"/>
      <stop offset="1" stop-color="#e9e9fd"/>
    </linearGradient>
    <linearGradient id="_Áĺçűě_ííűé_ăđŕäčĺíň_24" data-name="Áĺçűě˙ííűé ăđŕäčĺíň 24" x1="11.21" y1="168.01" x2="38.06" y2="168.01" gradientTransform="translate(560.71) rotate(-180) scale(1 -1)" gradientUnits="userSpaceOnUse">
      <stop offset="0" stop-color="#5761d7"/>
      <stop offset=".18" stop-color="#5b65d8"/>
      <stop offset=".39" stop-color="#6a72de"/>
      <stop offset=".61" stop-color="#8188e8"/>
      <stop offset=".85" stop-color="#a2a6f5"/>
      <stop offset="1" stop-color="#bcbeff"/>
    </linearGradient>
    <linearGradient id="_Áĺçűě_ííűé_ăđŕäčĺíň_24-2" data-name="Áĺçűě˙ííűé ăđŕäčĺíň 24" x1="32.16" y1="211.75" x2="252.94" y2="211.75" xlink:href="#_Áĺçűě_ííűé_ăđŕäčĺíň_24"/>
    <linearGradient id="_Áĺçűě_ííűé_ăđŕäčĺíň_2-2" data-name="Áĺçűě˙ííűé ăđŕäčĺíň 2" x1="-65.93" y1="205.71" x2="259.4" y2="205.71" xlink:href="#_Áĺçűě_ííűé_ăđŕäčĺíň_2"/>
    <clipPath id="clippath">
      <polygon class="cls-21" points="545.77 117.12 409.81 38.66 392.73 140.22 528.6 218.63 545.77 117.12"/>
    </clipPath>
    <linearGradient id="_Áĺçűě_ííűé_ăđŕäčĺíň_24-3" data-name="Áĺçűě˙ííűé ăđŕäčĺíň 24" x1="-52.74" y1="163.16" x2="168.04" y2="163.16" xlink:href="#_Áĺçűě_ííűé_ăđŕäčĺíň_24"/>
    <linearGradient id="_Áĺçűě_ííűé_ăđŕäčĺíň_2-3" data-name="Áĺçűě˙ííűé ăđŕäčĺíň 2" x1="21.44" y1="157.12" x2="242.34" y2="157.12" xlink:href="#_Áĺçűě_ííűé_ăđŕäčĺíň_2"/>
    <linearGradient id="_Áĺçűě_ííűé_ăđŕäčĺíň_21" data-name="Áĺçűě˙ííűé ăđŕäčĺíň 21" x1="631.39" y1="134.89" x2="678.02" y2="154.84" gradientTransform="translate(-148.43)" gradientUnits="userSpaceOnUse">
      <stop offset="0" stop-color="#42e8e0"/>
      <stop offset=".11" stop-color="#36b5bf"/>
      <stop offset=".22" stop-color="#2c87a0"/>
      <stop offset=".34" stop-color="#235f86"/>
      <stop offset=".46" stop-color="#1b3e71"/>
      <stop offset=".58" stop-color="#162560"/>
      <stop offset=".71" stop-color="#121355"/>
      <stop offset=".85" stop-color="#0f084e"/>
      <stop offset="1" stop-color="#0f054c"/>
    </linearGradient>
  </defs>
  <g class="cls-13">
    <g id="_Ńëîé_1" data-name="Ńëîé 1">
      <path class="cls-17" d="m583.37.54c-1.24-.72-3.25-.72-4.49,0-.93.54-1.16,1.33-.69,1.99l-69.53,40.14v50.67s-16.94,9.78-16.94,9.78v55.11s-58.02,33.5-58.02,33.5l-9.04-5.22,44.74-25.83v-30.21s-.18-.1-.18-.1l-50.87-29.37v-10.25l28.77-16.61c1.24.52,2.98.46,4.1-.18,1.24-.72,1.24-1.88,0-2.59-1.24-.72-3.25-.72-4.49,0-1.12.65-1.22,1.65-.32,2.37l-28.77,16.61v11.07l.18.1,50.87,29.37v29.39s-33.8,19.52-33.8,19.52v-12.59s15.5-8.95,15.5-8.95c1.24.52,2.98.46,4.1-.18,1.24-.72,1.24-1.88,0-2.59-1.24-.72-3.25-.72-4.49,0-1.12.65-1.22,1.65-.32,2.37l-15.5,8.95v13.41s-10.23,5.9-10.23,5.9l-12.09-6.98v-21.92s22.8-13.17,22.8-13.17v-15.15s-.18-.1-.18-.1l-48.01-27.72c.9-.72.8-1.72-.32-2.37-1.24-.72-3.25-.72-4.49,0-1.24.72-1.24,1.88,0,2.59,1.12.65,2.86.7,4.1.18l48.18,27.82v14.33s-22.09,12.76-22.09,12.76v-15.11s-.18-.1-.18-.1l-29.37-16.96c.9-.72.8-1.72-.32-2.37-1.24-.72-3.25-.72-4.49,0-1.24.72-1.24,1.88,0,2.59,1.12.65,2.86.7,4.1.18l29.55,17.06v37.03s-8.49-4.9-8.49-4.9l-13.99,8.08-12.67-7.32v-17.78s-.18-.1-.18-.1l-33.5-19.34v-16.76c.69-.04,1.36-.21,1.89-.52,1.24-.72,1.24-1.88,0-2.59-1.24-.72-3.25-.72-4.49,0-1.24.72-1.24,1.88,0,2.59.53.31,1.2.47,1.89.52v17.17s.18.1.18.1l33.5,19.34v16.96s-54.52-31.48-54.52-31.48v-33.37s29.57-17.07,29.57-17.07h27.14s.08-.05.08-.05l46.57-26.88c1.24.52,2.98.46,4.1-.18,1.24-.72,1.24-1.88,0-2.59-1.24-.72-3.25-.72-4.49,0-1.12.65-1.22,1.65-.32,2.37l-46.13,26.63h-25.72s85.55-49.39,85.55-49.39c1.24.52,2.98.46,4.1-.18,1.24-.72,1.24-1.88,0-2.59-1.24-.72-3.25-.72-4.49,0-1.12.65-1.22,1.65-.32,2.37l-116.35,67.17v34.19s.18.1.18.1l67.73,39.1-13.63,7.87-115.64-66.76v-39.84s-.18-.1-.18-.1l-39.33-22.7c.9-.72.8-1.72-.32-2.37-1.24-.72-3.25-.72-4.49,0-1.24.72-1.24,1.88,0,2.59,1.12.65,2.86.7,4.1.18l39.5,22.81v39.84s.18.1.18.1l115.46,66.66-12.98,7.49-114.36-66.03h-68.2s-42.62-24.61-42.62-24.61v-37.82c.45-.09.88-.23,1.23-.43,1.24-.72,1.24-1.88,0-2.59-1.24-.72-3.25-.72-4.49,0-1.24.72-1.24,1.88,0,2.59.7.4,1.64.57,2.55.52v38.14s.18.1.18.1l42.97,24.81h68.2s96.54,55.74,96.54,55.74h-19.42s-32.95-19.02-32.95-19.02h-25.38l-.08.05-35.2,20.32c-1.24-.52-2.98-.46-4.1.18-1.24.72-1.24,1.88,0,2.59,1.24.72,3.25.72,4.49,0,1.12-.65,1.22-1.65.32-2.37l34.76-20.07h25l32.95,19.02h20.84s16.07,9.28,16.07,9.28l-34.64,20-9.85-5.69v-14.93l-25.02-14.45c.9-.72.8-1.72-.32-2.37-1.24-.72-3.25-.72-4.49,0-1.24.72-1.24,1.88,0,2.59,1.12.65,2.86.7,4.1.18l25.02,14.45v14.11l-26.69-15.41h-12.64l-.08.05-15.07,8.7c-1.24-.52-2.98-.46-4.1.18-1.24.72-1.24,1.88,0,2.59,1.24.72,3.25.72,4.49,0,1.12-.65,1.22-1.65.32-2.37l14.63-8.44h12.25l36.73,21.2-6.67,3.85,21.29,12.29-9.97,5.76h-15.08l-10.79-6.23c.86-.71.74-1.7-.36-2.34-1.24-.72-3.25-.72-4.49,0-1.24.72-1.24,1.88,0,2.59,1.13.65,2.9.7,4.15.16l11.3,6.52h14.04l-25.43,14.68-59.82-34.54h-43.05s-.08.05-.08.05l-24.24,13.99c-1.24-.52-2.98-.46-4.1.18-1.24.72-1.24,1.88,0,2.59,1.24.72,3.25.72,4.49,0,1.12-.65,1.22-1.65.32-2.37l23.8-13.74h42.66s46.14,26.64,46.14,26.64h-19.75l-19.3-11.14c.9-.72.8-1.72-.32-2.37-1.24-.72-3.25-.72-4.49,0-1.24.72-1.24,1.88,0,2.59,1.12.65,2.86.7,4.1.18l19.82,11.44h21.17l11.93,6.89-30.37,17.53h-97.06s-75.41-43.54-75.41-43.54c.9-.72.8-1.72-.32-2.37-1.24-.72-3.25-.72-4.49,0-1.24.72-1.24,1.88,0,2.59,1.12.65,2.86.7,4.1.18l75.93,43.84h96.02s-12.05,6.96-12.05,6.96h-71.85s-.08.05-.08.05l-35.43,20.46c-1.24-.52-2.98-.46-4.1.18-1.24.72-1.24,1.88,0,2.59,1.24.72,3.25.72,4.49,0,1.12-.65,1.22-1.65.32-2.37l35-20.2h71.85s.08-.05.08-.05l81.43-47.01,9.04,5.22-85.61,49.43h-62.61l-.08.05-75.62,43.66H20.25s-20.25-11.69-20.25-11.69v.82l20.06,11.58h105.15s.08-.05.08-.05l47.46-27.4v16.22s-31.28,18.06-31.28,18.06c-1.24-.52-2.98-.46-4.1.18-1.24.72-1.24,1.88,0,2.59,1.24.72,3.25.72,4.49,0,1.12-.65,1.22-1.65.32-2.37l31.28-18.06v-16.94s-.16,0-.16,0l27.62-15.95h62.61l.08-.05,86.05-49.68,10.27,5.93-166.96,96.39v17.42s.71,0,.71,0v-17.01s166.96-96.39,166.96-96.39l12.69,7.33-86.12,49.72v8.89s-15.27,8.82-15.27,8.82v20.45l-29.61,17.1c-1.24-.52-2.98-.46-4.1.18-.45.26-.74.58-.86.92h6.19c-.09-.25-.26-.48-.52-.69l29.61-17.1v-20.45l14.56-8.41v32.74s8.59,4.96,8.59,4.96l-15.48,8.94h1.42l14.77-8.53,14.77,8.53h1.42l-24.79-14.31v-41.63s86.12-49.72,86.12-49.72l11.55,6.67-60.95,35.19c-1.24-.52-2.98-.46-4.1.18-1.24.72-1.24,1.88,0,2.59,1.24.72,3.25.72,4.49,0,1.12-.65,1.22-1.65.32-2.37l60.95-35.19,11.15,6.44-72.91,42.09h-19.81c-.12-.34-.41-.67-.87-.94-1.24-.72-3.25-.72-4.49,0-1.24.72-1.24,1.88,0,2.59,1.24.72,3.25.72,4.49,0,.46-.27.75-.6.87-.94h20l.08-.05,73.34-42.34,4.5,2.6,3.46-2,17.47,10.08v14.04s-14.43,8.33-14.43,8.33v-.04h-22.65l-.08.05-24.85,14.35c-1.24-.52-2.98-.46-4.1.18-1.24.72-1.24,1.88,0,2.59,1.24.72,3.25.72,4.49,0,1.12-.65,1.22-1.65.32-2.37l24.41-14.09h21.29l-42.43,24.49c-1.25-.56-3.04-.52-4.19.14-1.24.72-1.24,1.88,0,2.59,1.24.72,3.25.72,4.49,0,1.09-.63,1.22-1.6.39-2.32l52.92-30.55v6.75s-31.48,18.18-31.48,18.18v12.83l-25.63,14.8c-1.24-.52-2.98-.46-4.1.18-1.24.72-1.24,1.88,0,2.59,1.24.72,3.25.72,4.49,0,1.12-.65,1.22-1.65.32-2.37l25.63-14.8v-12.83l31.48-18.18v-7.57s4.41-2.55,4.41-2.55v-14.86s-17.47-10.09-17.47-10.09l11.48-6.63,35.94,20.75v23.59s-24.41,14.09-24.41,14.09c-1.25-.56-3.04-.52-4.19.14-1.24.72-1.24,1.88,0,2.59,1.24.72,3.25.72,4.49,0,1.09-.63,1.22-1.6.39-2.32l23.71-13.69v19.06s-18.73,10.82-18.73,10.82v23.14s.71,0,.71,0v-22.73s18.02-10.41,18.02-10.41v33.13s.71,0,.71,0v-77.84s-35.94-20.75-35.94-20.75l12.89-7.44,46.98,27.12v64.6s22.58,13.04,22.58,13.04v1.27s.71,0,.71,0v-1.68s-22.58-13.04-22.58-13.04v-64.6s-46.98-27.12-46.98-27.12l9.55-5.52,63.4,36.6v55.11s35.05,20.24,35.05,20.24h1.42l-35.76-20.65v-55.11s-63.4-36.6-63.4-36.6l15.48-8.94,105.49,60.9v27.42s36.15,20.87,36.15,20.87v-.82l-35.44-20.46v-27.42s-59.33-34.26-59.33-34.26h46.92l47.85,27.63v-.82l-47.66-27.52h-48.35l-44.92-25.93,18-10.39,38.61,22.29h62s22.32,12.88,22.32,12.88v-.82l-4.89-2.82h4.89v-.71h-6.12s-16-9.24-16-9.24h-62s-10.81-6.24-10.81-6.24h26.36l.08-.05,13.22-7.63h55.09s.18.1.18.1v-.82h-54.04s14.88-8.59,14.88-8.59c1.24.52,2.98.46,4.1-.18,1.24-.72,1.24-1.88,0-2.59-1.24-.72-3.25-.72-4.49,0-1.12.65-1.22,1.65-.32,2.37l-28.9,16.69h-27.4l-26.06-15.04,9.63-5.56-6.2-3.58h18.01l23.54,13.59c-.9.72-.8,1.72.32,2.37,1.24.72,3.25.72,4.49,0,1.24-.72,1.24-1.88,0-2.59-1.12-.65-2.86-.7-4.1-.18l-24.06-13.89h-19.43l-13.18-7.61,8.1-4.68h14.37l12.64-7.3h9.43l21.3,12.3c-.96.72-.88,1.75.26,2.41,1.24.72,3.25.72,4.49,0,1.24-.72,1.24-1.88,0-2.59-1.1-.63-2.79-.7-4.03-.22l-21.83-12.6h-9.81l-12.64,7.3h-12.95l25.91-14.96h13.99l29.16,16.83h54.81v-.71h-54.62s-29.16-16.83-29.16-16.83h-14.37l-.08.05-35.68,20.6-9.36-5.4,40.32-23.28h28.44s23.46,13.54,23.46,13.54h51.06v-.71h-50.86s-22.23-12.83-22.23-12.83h73.09v-.71h-103.14s-.08.05-.08.05l-40.75,23.53-10.64-6.14,56.22-32.46h98.39v-.71h-71.7s71.7-41.4,71.7-41.4v-.82l-73.12,42.22h-24.75s53.3-30.77,53.3-30.77v-6.78l25.51-14.72c1.24.52,2.98.46,4.1-.18,1.24-.72,1.24-1.88,0-2.59-1.24-.72-3.25-.72-4.49,0-1.12.65-1.22,1.65-.32,2.37l-13.89,8.02v-18.59s33.67-19.44,33.67-19.44v-.82l-34.38,19.85v19.41s-10.91,6.3-10.91,6.3v6.78l-53.74,31.03.18.31-56.48,32.61-10.27-5.93,58.02-33.5v-55.11s107.57-62.11,107.57-62.11v-.82l-90.63,52.33v-49.85S578.73,3.03,578.73,3.03c.05.03.09.07.14.1,1.24.72,3.25.72,4.49,0,1.24-.72,1.24-1.88,0-2.59Zm-97.38,222.2l-83.34,48.12-83.33-48.11,83.34-48.12,83.33,48.11Z"/>
      <path class="cls-8" d="m600,86.76l-14.81,8.55v27.56s-131.6,75.98-131.6,75.98l-10-5.77,67.88-39.19v-7.01s12.03-6.95,12.03-6.95v-16.11s23.34-13.47,23.34-13.47c.98.41,2.35.36,3.23-.15.98-.56.98-1.48,0-2.04-.98-.56-2.56-.56-3.54,0-.88.51-.96,1.3-.25,1.87l-23.34,13.48v16.11s-11.47,6.62-11.47,6.62v-25.8s-.14-.08-.14-.08l-6.63-3.83,39.79-22.97v-25.84s28.27-16.32,28.27-16.32c.98.41,2.35.36,3.23-.15.98-.56.98-1.48,0-2.04-.98-.56-2.56-.56-3.54,0-.88.51-.96,1.3-.25,1.87l-28.27,16.32v25.84s-39.79,22.97-39.79,22.97l-64.69-37.35v-28.9c.54-.04,1.07-.17,1.49-.41.98-.56.98-1.48,0-2.04-.98-.56-2.56-.56-3.54,0-.98.56-.98,1.48,0,2.04.42.24.95.37,1.49.41v29.22s.14.08.14.08l38.91,22.47h-28.36s-22.93-13.24-22.93-13.24c.71-.56.63-1.36-.25-1.87-.98-.56-2.56-.56-3.54,0-.98.56-.98,1.48,0,2.04.88.51,2.25.55,3.23.15l23.34,13.48h29.47s32.02,18.48,32.02,18.48v32.81s-67.88,39.19-67.88,39.19l-9.1-5.25,48.04-27.74c.98.41,2.35.36,3.23-.15.98-.56.98-1.48,0-2.04-.98-.56-2.56-.56-3.54,0-.88.51-.96,1.3-.25,1.87l-48.04,27.74-8.79-5.07,57.46-33.18h15.62c.09.27.32.53.69.74.98.56,2.56.56,3.54,0,.98-.56.98-1.48,0-2.04s-2.56-.56-3.54,0c-.36.21-.59.47-.69.74h-15.77s-.07.04-.07.04l-57.81,33.38-3.55-2.05-.14.08-2.59,1.5-13.77-7.95v-11.06s11.38-6.57,11.38-6.57v.03h17.85s19.65-11.35,19.65-11.35c.98.41,2.35.36,3.23-.15.98-.56.98-1.48,0-2.04-.98-.56-2.56-.56-3.54,0-.88.51-.96,1.3-.25,1.87l-19.24,11.11h-16.78s33.44-19.31,33.44-19.31c.98.44,2.4.41,3.3-.11.98-.56.98-1.48,0-2.04-.98-.56-2.56-.56-3.54,0-.86.5-.96,1.26-.31,1.83l-41.71,24.08v-5.32l24.82-14.33v-10.12l20.2-11.66c.98.41,2.35.36,3.23-.15.98-.56.98-1.48,0-2.04-.98-.56-2.56-.56-3.54,0-.88.51-.96,1.3-.25,1.87l-20.2,11.66v10.12l-24.82,14.33v5.97l-3.48,2.01v11.71s13.77,7.95,13.77,7.95l-9.05,5.22-28.33-16.36v-18.59s19.24-11.11,19.24-11.11c.98.44,2.4.41,3.3-.11.98-.56.98-1.48,0-2.04-.98-.56-2.56-.56-3.54,0-.86.5-.96,1.26-.31,1.83l-18.69,10.79v-15.02s14.77-8.52,14.77-8.52v-28.26c.54-.04,1.07-.17,1.49-.41.98-.56.98-1.48,0-2.04-.98-.56-2.56-.56-3.54,0-.98.56-.98,1.48,0,2.04.42.24.95.37,1.49.41v27.93s-14.21,8.2-14.21,8.2v-49.82s-.56,0-.56,0v85.06s28.33,16.36,28.33,16.36l-10.16,5.86-37.03-21.38v-50.91s-17.8-10.28-17.8-10.28v-19.15s-15.72-9.07-15.72-9.07c.71-.56.63-1.36-.25-1.87-.98-.56-2.56-.56-3.54,0-.98.56-.98,1.48,0,2.04.88.51,2.25.55,3.23.15l15.72,9.07v19.15s17.8,10.28,17.8,10.28v50.91s37.03,21.38,37.03,21.38l-7.53,4.35-49.97-28.85v-43.44s-.14-.08-.14-.08l-44.23-25.54c.71-.56.63-1.36-.25-1.87-.98-.56-2.56-.56-3.54,0-.98.56-.98,1.48,0,2.04.88.51,2.25.55,3.23.15l44.37,25.62v43.44s.14.08.14.08l49.83,28.77-12.2,7.05-83.14-48v-21.62l-.14-.08-69.6-40.19c.71-.56.63-1.36-.25-1.87-.98-.56-2.56-.56-3.54,0-.98.56-.98,1.48,0,2.04.88.51,2.25.55,3.23.15l69.75,40.27v21.62l.14.08,46.62,26.92h-36.98s-42.81-24.72-42.81-24.72c.71-.56.63-1.36-.25-1.87-.98-.56-2.56-.56-3.54,0-.98.56-.98,1.48,0,2.04.88.51,2.25.55,3.23.15l43.22,24.96h38.1s35.41,20.44,35.41,20.44l-14.18,8.19-30.43-17.57h-48.87l-55.58-32.09h-30.83s-12.57-7.26-12.57-7.26c.71-.56.63-1.36-.25-1.87-.98-.56-2.56-.56-3.54,0-.98.56-.98,1.48,0,2.04.88.51,2.25.55,3.23.15l12.98,7.49h30.83s42,24.25,42,24.25h-36.28l-17.47-10.09c.71-.57.63-1.36-.25-1.87-.98-.56-2.56-.56-3.54,0-.98.56-.98,1.48,0,2.04.88.51,2.25.55,3.23.15l17.88,10.32h37.4l12.61,7.28h48.87l8.52,4.92h-20.77l-.07.04-10.42,6.02h-43.42s-12.25-7.07-12.25-7.07h-24.56c-.09-.27-.32-.53-.68-.74-.98-.56-2.56-.56-3.54,0-.98.56-.98,1.48,0,2.04s2.56.56,3.54,0c.36-.21.59-.47.69-.74h24.41l12.25,7.07h42.6s-11.73,6.77-11.73,6.77c-.98-.41-2.35-.36-3.23.15-.98.56-.98,1.48,0,2.04.98.56,2.56.56,3.54,0,.88-.51.96-1.3.25-1.86l22.78-13.15h21.6l20.54,11.86-7.59,4.38.42.24,4.46,2.58h-14.19s-18.56-10.71-18.56-10.71c.71-.57.63-1.36-.25-1.87-.98-.56-2.56-.56-3.54,0-.98.56-.98,1.48,0,2.04.88.51,2.25.55,3.23.15l18.97,10.95h15.32s10.39,6,10.39,6l-6.39,3.69h-11.33l-.07.04-9.9,5.71h-7.43l-16.79-9.69c.75-.57.69-1.38-.21-1.9-.98-.56-2.56-.56-3.54,0-.98.56-.98,1.48,0,2.04.86.5,2.2.55,3.18.17l17.21,9.93h7.73l.06-.04,9.9-5.71h10.21l-20.42,11.79h-11.02l-22.98-13.27h-69.3l-42.99-24.82c.74-.57.68-1.37-.22-1.89-.98-.56-2.56-.56-3.54,0-.98.56-.98,1.48,0,2.04.87.5,2.21.55,3.19.17l43.4,25.06h69.3l22.98,13.27h11.33l.06-.04,28.12-16.24,7.38,4.26-31.78,18.35h-22.41l-18.49-10.68h-47.46c-.09-.27-.32-.53-.69-.74-.98-.56-2.56-.56-3.54,0s-.98,1.48,0,2.04c.98.56,2.56.56,3.54,0,.36-.21.59-.47.68-.74h47.31s17.52,10.11,17.52,10.11h-66.87l-.06.04-63.73,36.79c-.98-.41-2.35-.36-3.23.15-.98.56-.98,1.48,0,2.04.98.56,2.56.56,3.54,0,.88-.51.96-1.3.25-1.86l63.38-36.59h90.41l.06-.04,32.12-18.55,8.38,4.84-44.31,25.58h-78.02l-.06.04-68.32,39.45h-79.61s-46.43-26.8-46.43-26.8c.71-.56.63-1.36-.25-1.86-.98-.56-2.56-.56-3.54,0-.98.56-.98,1.48,0,2.04.88.51,2.25.55,3.23.15l46.84,27.04h79.91s.07-.04.07-.04l68.32-39.45h56.83l-83.45,48.18v12.68s-33.29,19.22-33.29,19.22c-.98-.41-2.35-.36-3.23.15-.98.56-.98,1.48,0,2.04.98.56,2.56.56,3.54,0,.88-.51.96-1.3.25-1.87l33.29-19.22v-12.68s84.02-48.51,84.02-48.51h19.51l-42.01,24.26v5.35l-20.1,11.61c-.98-.41-2.35-.36-3.23.15-.98.56-.98,1.48,0,2.04.98.56,2.56.56,3.54,0,.88-.51.96-1.3.25-1.87l10.95-6.32v14.65l-63.24,36.51c-.98-.41-2.35-.36-3.23.15-.98.56-.98,1.48,0,2.04.98.56,2.56.56,3.54,0,.88-.51.96-1.3.25-1.87l63.24-36.51v-15.3l8.6-4.96v-5.35l42.36-24.45-.14-.24,44.52-25.7,8.09,4.67-45.73,26.4v43.44s-84.11,48.56-84.11,48.56h1.12l69.64-40.2v39.29s-1.59.92-1.59.92h1.12l1.02-.59v-39.94s13.35-7.71,13.35-7.71v-43.44s45.73-26.4,45.73-26.4l7.12,4.11-35.26,20.36v23.81s.14.08.14.08l40.09,23.15v8.08s-22.68,13.09-22.68,13.09c-.98-.41-2.35-.36-3.23.15-.98.56-.98,1.48,0,2.04.98.56,2.56.56,3.54,0,.88-.51.96-1.3.25-1.87l22.67-13.09v-8.72s-.14-.08-.14-.08l-40.09-23.15v-23.17s26.64-15.38,26.64-15.38v9.92s-12.22,7.05-12.22,7.05c-.98-.41-2.35-.36-3.23.15-.98.56-.98,1.48,0,2.04.98.56,2.56.56,3.54,0,.88-.51.96-1.3.25-1.86l12.21-7.05v-10.57s8.06-4.65,8.06-4.65l9.53,5.5v17.28s-17.97,10.38-17.97,10.38v11.95l.14.08,37.84,21.85c-.71.56-.63,1.36.25,1.87.98.56,2.56.56,3.54,0,.98-.56.98-1.48,0-2.04-.88-.51-2.25-.55-3.23-.15l-37.98-21.93v-11.3l17.41-10.05v11.91s23.29,13.45,23.29,13.45c-.71.57-.63,1.36.25,1.86.98.56,2.56.56,3.54,0,.98-.56.98-1.48,0-2.04-.88-.51-2.25-.55-3.23-.15l-23.29-13.45v-29.19s6.69,3.86,6.69,3.86l.14-.08,10.89-6.29,9.99,5.77v14.01s26.55,15.33,26.55,15.33v13.21c-.54.04-1.07.17-1.49.41-.98.56-.98,1.48,0,2.04s2.56.56,3.54,0,.98-1.48,0-2.04c-.42-.24-.95-.37-1.49-.41v-13.53s-26.55-15.33-26.55-15.33v-13.37s42.98,24.81,42.98,24.81v26.3s-23.31,13.46-23.31,13.46h-21.39l-.06.04-36.7,21.19c-.98-.41-2.35-.36-3.23.15-.98.56-.98,1.48,0,2.04.98.56,2.56.56,3.54,0,.88-.51.96-1.3.25-1.86l36.36-20.99h20.27l-67.42,38.93c-.98-.41-2.35-.36-3.23.15-.01,0-.02.02-.03.02h4.09l91.44-52.79v-26.95s-.14-.08-.14-.08l-53.38-30.82,10.74-6.2,91.14,52.62v31.4s31.13,17.98,31.13,17.98c-.71.56-.63,1.36.25,1.86.98.56,2.56.56,3.54,0,.98-.56.98-1.48,0-2.04-.88-.51-2.25-.55-3.23-.15l-31.14-17.98v-31.4s-.14-.08-.14-.08l-91-52.54,10.23-5.91,90.14,52.04h53.75l2.52,1.46v-.65l-2.37-1.37h-53.75l-76.09-43.93h15.3l25.97,14.99h20s.07-.04.07-.04l27.74-16.02c.98.41,2.35.36,3.23-.15.98-.56.98-1.48,0-2.04-.98-.56-2.56-.56-3.54,0-.88.51-.96,1.3-.25,1.87l-27.4,15.82h-19.7s-25.97-14.99-25.97-14.99h-16.42l-12.67-7.31,27.3-15.76,7.76,4.48v11.77s19.72,11.39,19.72,11.39c-.71.56-.63,1.36.25,1.86.98.56,2.56.56,3.54,0,.98-.56.98-1.48,0-2.04-.88-.51-2.25-.55-3.23-.15l-19.72-11.39v-11.12s21.03,12.14,21.03,12.14h9.96l.06-.04,11.88-6.86c.98.41,2.35.36,3.23-.15.98-.56.98-1.48,0-2.04-.98-.56-2.56-.56-3.54,0-.88.51-.96,1.3-.25,1.87l-11.53,6.66h-9.66l-28.95-16.71,5.26-3.04-.42-.24-16.36-9.45,7.86-4.54h11.88l8.5,4.91c-.68.56-.59,1.34.28,1.84.98.56,2.56.56,3.54,0,.98-.56.98-1.48,0-2.04-.89-.52-2.29-.55-3.27-.13l-8.91-5.14h-11.06l20.04-11.57,47.15,27.22h33.93l.07-.04,19.1-11.03c.12.05.26.07.4.11v-2.58c-.25.07-.49.16-.7.28-.88.51-.96,1.3-.25,1.86l-18.76,10.83h-33.63l-36.36-21h15.56s15.21,8.78,15.21,8.78c-.71.56-.63,1.36.25,1.87.98.56,2.56.56,3.54,0,.98-.56.98-1.48,0-2.04-.88-.51-2.25-.55-3.23-.15l-15.63-9.02h-16.68s-9.41-5.43-9.41-5.43l23.94-13.82h76.14v-.56h-75.17s9.5-5.48,9.5-5.48h56.63s.06-.04.06-.04l8.98-5.18v-.65l-9.19,5.31h-56.63s-.07.04-.07.04l-64.18,37.05-7.12-4.11,67.47-38.96h49.35s.06-.04.06-.04l20.31-11.73v-.65l-20.53,11.85h-49.35s-.06.04-.06.04l-67.82,39.16-8.09-4.67,131.6-75.98v-27.56s14.25-8.23,14.25-8.23v-.65Zm-113.85,131.53l-65.69,37.92-65.68-37.92,65.69-37.92,65.68,37.92Z"/>
      <g>
        <g class="cls-23">
          <polygon class="cls-4" points="403.65 327.73 234.86 230.28 403.65 132.83 572.44 230.28 403.65 327.73"/>
        </g>
        <g class="cls-23">
          <polygon class="cls-4" points="403.65 312.61 261.04 230.28 403.65 147.94 546.26 230.28 403.65 312.61"/>
        </g>
        <g class="cls-11">
          <polygon class="cls-14" points="403.65 295.05 291.45 230.28 403.65 165.5 515.85 230.28 403.65 295.05"/>
        </g>
      </g>
      <g>
        <path class="cls-9" d="m445.23,289.07c-1.05,0-2.16-.26-3.04-.77l-133.94-77.33c-.92-.53-1.45-1.27-1.45-2.03,0-.66.39-1.25,1.1-1.66l79.93-46.15c1.42-.82,3.81-.73,5.43.21l133.95,77.33c.92.53,1.45,1.27,1.45,2.03,0,.66-.39,1.25-1.1,1.66l-79.93,46.15c-.65.38-1.51.56-2.4.56Zm-136.5-78.93l133.95,77.33c1.31.76,3.36.85,4.47.21l79.93-46.15c.28-.16.62-.44.62-.83s-.36-.85-.97-1.2l-133.95-77.33c-1.31-.76-3.36-.85-4.48-.21l-79.93,46.15c-.28.16-.62.44-.62.83s.36.85.97,1.2h0Z"/>
        <g>
          <g>
            <g>
              <g>
                <g>
                  <path class="cls-2" d="m393.2,137.64l16.93-100.46-1.36-.57,2.05-1.17h0c.4-.25.96-.24,1.58.12l135.32,78.13c1.11.64,1.95,2.29,1.76,3.44l-17.07,101.25c-.09.53-.35.88-.71,1.03h0s-2,1.16-2,1.16l-.34-1.87.11.03-134.5-77.65c-1.11-.64-1.95-2.29-1.76-3.44Z"/>
                  <path class="cls-1" d="m546.96,116.43l2.22-.98c.25.57.37,1.17.29,1.67l-17.07,101.25c-.09.53-.35.88-.71,1.03h0s-2,1.16-2,1.16l-.34-1.87.11.03-6.81-3.93,24.3-98.37Z"/>
                  <path class="cls-10" d="m392.84,142.3l135.32,78.13c1.04.6,1.94.25,2.12-.83l17.07-101.25c.2-1.15-.65-2.8-1.76-3.44l-135.32-78.13c-1.04-.6-1.94-.25-2.12.83l-17.07,101.25c-.2,1.15.65,2.8,1.76,3.44Z"/>
                  <g class="cls-5">
                    <polygon class="cls-22" points="409.81 38.66 545.77 117.12 528.6 218.63 392.73 140.22 409.81 38.66"/>
                  </g>
                </g>
                <g>
                  <path class="cls-15" d="m307.77,190.23l7.38,3.86,74.05-42.75c1.24-.72,3.4-.63,4.83.2l127.72,73.74c1.22-.68,6.79-3.36,6.79-3.36l-2.7,4.39s0,0-.01,0c-.11.31-.35.61-.76.84l-77.99,45.03c-1.24.72-3.4.63-4.83-.2l-130.7-75.46c-.59-.34-.95-.75-1.1-1.17h-.01s-2.69-5.11-2.69-5.11Z"/>
                  <path class="cls-24" d="m308.91,191.45l133.95,77.33c1.47.85,3.68.94,4.95.21l79.93-46.15c1.27-.73,1.11-2.01-.36-2.86l-133.95-77.33c-1.47-.85-3.68-.94-4.95-.21l-79.93,46.15c-1.27.73-1.11,2.01.36,2.86Z"/>
                  <path class="cls-3" d="m308.91,190.85l133.95,77.33c1.47.85,3.68.94,4.95.21l79.93-46.15c.45-.26.71-.59.81-.94.14.57-.11,1.13-.81,1.54l-79.93,46.15c-1.27.73-3.49.64-4.95-.21l-133.95-77.33c-.95-.55-1.34-1.28-1.16-1.92.12.47.5.94,1.16,1.32Z"/>
                </g>
              </g>
              <g class="cls-18">
                <g class="cls-20">
                  <g>
                    <g>
                      <path class="cls-12" d="m392.67,141.64l7.38,3.86,74.05-42.75c1.24-.72,3.4-.63,4.83.2l127.72,73.74c1.22-.68,6.79-3.36,6.79-3.36l-2.7,4.39s0,0-.01,0c-.11.31-.35.61-.76.84l-77.99,45.03c-1.24.72-3.4.63-4.83-.2l-130.69-75.46c-.59-.34-.95-.75-1.1-1.17h-.01s-2.69-5.11-2.69-5.11Z"/>
                      <path class="cls-19" d="m393.81,142.86l133.95,77.33c1.47.85,3.68.94,4.95.21l79.93-46.15c1.27-.73,1.11-2.01-.36-2.86l-133.95-77.33c-1.47-.85-3.68-.94-4.95-.21l-79.93,46.15c-1.27.73-1.11,2.01.36,2.86Z"/>
                      <path class="cls-3" d="m612.29,171.39l-133.95-77.33c-.94-.54-2.2-.77-3.31-.67.82.06,1.65.29,2.32.67l133.95,77.33c1.47.85,1.63,2.13.36,2.86l-79.93,46.15c-.45.26-1.03.41-1.64.47.97.08,1.94-.07,2.63-.47l79.93-46.15c1.27-.73,1.11-2.01-.36-2.86Z"/>
                    </g>
                    <g class="cls-6">
                      <path class="cls-10" d="m463.97,129.55l-4.29-2.48c-.34-.2-.93-.18-1.3.04l-4.77,2.79c-.37.22-.4.56-.05.76l4.29,2.48c.34.2.93.18,1.3-.04l4.77-2.79c.37-.22.4-.56.05-.76Z"/>
                      <path class="cls-10" d="m470.6,133.37l-4.29-2.48c-.34-.2-.93-.18-1.3.04l-4.77,2.79c-.37.22-.4.56-.05.76l4.29,2.48c.34.2.93.18,1.3-.04l4.77-2.79c.37-.22.4-.56.05-.76Z"/>
                      <path class="cls-10" d="m477.23,137.2l-4.29-2.48c-.34-.2-.93-.18-1.3.04l-4.77,2.79c-.37.22-.4.56-.05.76l4.29,2.48c.34.2.93.18,1.3-.04l4.77-2.79c.37-.22.4-.56.05-.76Z"/>
                      <path class="cls-10" d="m472.19,142.3l-4.29-2.48c-.34-.2-.93-.18-1.3.04l-4.01,2.34c-.37.22-.4.56-.05.76l4.29,2.48c.34.2.93.18,1.3-.04l4.01-2.34c.37-.22.4-.56.05-.76Z"/>
                      <path class="cls-10" d="m478.82,146.12l-4.29-2.48c-.34-.2-.93-.18-1.3.04l-4.01,2.34c-.37.22-.4.56-.05.76l4.29,2.48c.34.2.93.18,1.3-.04l4.01-2.34c.37-.22.4-.56.05-.76Z"/>
                      <path class="cls-10" d="m485.45,149.95l-4.29-2.48c-.34-.2-.93-.18-1.3.04l-4.01,2.34c-.37.22-.4.56-.05.76l4.29,2.48c.34.2.93.18,1.3-.04l4.01-2.34c.37-.22.4-.56.05-.76Z"/>
                      <path class="cls-10" d="m492.08,153.78l-4.29-2.48c-.34-.2-.93-.18-1.3.04l-4.01,2.34c-.37.22-.4.56-.05.76l4.29,2.48c.34.2.93.18,1.3-.04l4.01-2.34c.37-.22.4-.56.05-.76Z"/>
                      <path class="cls-10" d="m498.71,157.61l-4.29-2.48c-.34-.2-.93-.18-1.3.04l-4.01,2.34c-.37.22-.4.56-.05.76l4.29,2.48c.34.2.93.18,1.3-.04l4.01-2.34c.37-.22.4-.56.05-.76Z"/>
                      <path class="cls-10" d="m505.34,161.44l-4.29-2.48c-.34-.2-.93-.18-1.3.04l-4.01,2.34c-.37.22-.4.56-.05.76l4.29,2.48c.34.2.93.18,1.3-.04l4.01-2.34c.37-.22.4-.56.05-.76Z"/>
                      <path class="cls-10" d="m511.97,165.27l-4.29-2.48c-.34-.2-.93-.18-1.3.04l-4.01,2.34c-.37.22-.4.56-.05.76l4.29,2.48c.34.2.93.18,1.3-.04l4.01-2.34c.37-.22.4-.56.05-.76Z"/>
                      <path class="cls-10" d="m518.6,169.09l-4.29-2.48c-.34-.2-.93-.18-1.3.04l-4.01,2.34c-.37.22-.4.56-.05.76l4.29,2.48c.34.2.93.18,1.3-.04l4.01-2.34c.37-.22.4-.56.05-.76Z"/>
                      <path class="cls-10" d="m525.23,172.92l-4.29-2.48c-.34-.2-.93-.18-1.3.04l-4.01,2.34c-.37.22-.4.56-.05.76l4.29,2.48c.34.2.93.18,1.3-.04l4.01-2.34c.37-.22.4-.56.05-.76Z"/>
                      <path class="cls-10" d="m531.86,176.75l-4.29-2.48c-.34-.2-.93-.18-1.3.04l-4.01,2.34c-.37.22-.4.56-.05.76l4.29,2.48c.34.2.93.18,1.3-.04l4.01-2.34c.37-.22.4-.56.05-.76Z"/>
                      <path class="cls-10" d="m469.42,147.76l-4.29-2.48c-.34-.2-.93-.18-1.3.04l-4.01,2.34c-.37.22-.4.56-.05.76l4.29,2.48c.34.2.93.18,1.3-.04l4.01-2.34c.37-.22.4-.56.05-.76Z"/>
                      <path class="cls-10" d="m462.69,143.88l-4.29-2.48c-.34-.2-.93-.18-1.3.04l-4.01,2.34c-.37.22-.4.56-.05.76l4.29,2.48c.34.2.93.18,1.3-.04l4.01-2.34c.37-.22.4-.56.05-.76Z"/>
                      <path class="cls-10" d="m455.95,139.98l-9.25-5.34c-.34-.2-.93-.18-1.3.04l-4.01,2.34c-.37.22-.4.56-.05.76l9.25,5.34c.34.2.93.18,1.3-.04l4.01-2.34c.37-.22.4-.56.05-.76Z"/>
                      <path class="cls-10" d="m448.13,142.53l-7.5-4.33c-.34-.2-.93-.18-1.3.04l-4.01,2.34c-.37.22-.4.56-.05.76l7.5,4.33c.34.2.93.18,1.3-.04l4.01-2.34c.37-.22.4-.56.05-.76Z"/>
                      <path class="cls-10" d="m476.05,151.59l-4.29-2.48c-.34-.2-.93-.18-1.3.04l-4.01,2.34c-.37.22-.4.56-.05.76l4.29,2.48c.34.2.93.18,1.3-.04l4.01-2.34c.37-.22.4-.56.05-.76Z"/>
                      <path class="cls-10" d="m482.68,155.42l-4.29-2.48c-.34-.2-.93-.18-1.3.04l-4.01,2.34c-.37.22-.4.56-.05.76l4.29,2.48c.34.2.93.18,1.3-.04l4.01-2.34c.37-.22.4-.56.05-.76Z"/>
                      <path class="cls-10" d="m489.32,159.25l-4.29-2.48c-.34-.2-.93-.18-1.3.04l-4.01,2.34c-.37.22-.4.56-.05.76l4.29,2.48c.34.2.93.18,1.3-.04l4.01-2.34c.37-.22.4-.56.05-.76Z"/>
                      <path class="cls-10" d="m495.95,163.07l-4.29-2.48c-.34-.2-.93-.18-1.3.04l-4.01,2.34c-.37.22-.4.56-.05.76l4.29,2.48c.34.2.93.18,1.3-.04l4.01-2.34c.37-.22.4-.56.05-.76Z"/>
                      <path class="cls-10" d="m502.58,166.9l-4.29-2.48c-.34-.2-.93-.18-1.3.04l-4.01,2.34c-.37.22-.4.56-.05.76l4.29,2.48c.34.2.93.18,1.3-.04l4.01-2.34c.37-.22.4-.56.05-.76Z"/>
                      <path class="cls-10" d="m509.21,170.73l-4.29-2.48c-.34-.2-.93-.18-1.3.04l-4.01,2.34c-.37.22-.4.56-.05.76l4.29,2.48c.34.2.93.18,1.3-.04l4.01-2.34c.37-.22.4-.56.05-.76Z"/>
                      <path class="cls-10" d="m515.84,174.56l-4.29-2.48c-.34-.2-.93-.18-1.3.04l-4.01,2.34c-.37.22-.4.56-.05.76l4.29,2.48c.34.2.93.18,1.3-.04l4.01-2.34c.37-.22.4-.56.05-.76Z"/>
                      <path class="cls-10" d="m522.47,178.39l-4.29-2.48c-.34-.2-.93-.18-1.3.04l-4.01,2.34c-.37.22-.4.56-.05.76l4.29,2.48c.34.2.93.18,1.3-.04l4.01-2.34c.37-.22.4-.56.05-.76Z"/>
                      <path class="cls-10" d="m529.1,182.21l-4.29-2.48c-.34-.2-.93-.18-1.3.04l-4.01,2.34c-.37.22-.4.56-.05.76l4.29,2.48c.34.2.93.18,1.3-.04l4.01-2.34c.37-.22.4-.56.05-.76Z"/>
                      <path class="cls-10" d="m540.89,189.02l-9.37-5.41c-.34-.2-.93-.18-1.3.04l-4.01,2.34c-.37.22-.4.56-.05.76l9.37,5.41c.34.2.93.18,1.3-.04l4.01-2.34c.37-.22.4-.56.05-.76Z"/>
                      <path class="cls-10" d="m528.73,196.12l-7.91-4.57c-.34-.2-.93-.18-1.3.04l-4.01,2.34c-.37.22-.4.56-.05.76l7.91,4.57c.34.2.93.18,1.3-.04l4.01-2.34c.37-.22.4-.56.05-.76Z"/>
                      <path class="cls-10" d="m475.13,158.12l-4.29-2.48c-.34-.2-.93-.18-1.3.04l-4.01,2.34c-.37.22-.4.56-.05.76l4.29,2.48c.34.2.93.18,1.3-.04l4.01-2.34c.37-.22.4-.56.05-.76Z"/>
                      <path class="cls-10" d="m468.34,154.19l-4.29-2.48c-.34-.2-.93-.18-1.3.04l-4.01,2.34c-.37.22-.4.56-.05.76l4.29,2.48c.34.2.93.18,1.3-.04l4.01-2.34c.37-.22.4-.56.05-.76Z"/>
                      <path class="cls-10" d="m461.54,150.27l-4.29-2.48c-.34-.2-.93-.18-1.3.04l-4.01,2.34c-.37.22-.4.56-.05.76l4.29,2.48c.34.2.93.18,1.3-.04l4.01-2.34c.37-.22.4-.56.05-.76Z"/>
                      <path class="cls-10" d="m454.75,146.35l-4.29-2.48c-.34-.2-.93-.18-1.3.04l-4.01,2.34c-.37.22-.4.56-.05.76l4.29,2.48c.34.2.93.18,1.3-.04l4.01-2.34c.37-.22.4-.56.05-.76Z"/>
                      <path class="cls-10" d="m481.76,161.95l-4.29-2.48c-.34-.2-.93-.18-1.3.04l-4.01,2.34c-.37.22-.4.56-.05.76l4.29,2.48c.34.2.93.18,1.3-.04l4.01-2.34c.37-.22.4-.56.05-.76Z"/>
                      <path class="cls-10" d="m488.4,165.77l-4.29-2.48c-.34-.2-.93-.18-1.3.04l-4.01,2.34c-.37.22-.4.56-.05.76l4.29,2.48c.34.2.93.18,1.3-.04l4.01-2.34c.37-.22.4-.56.05-.76Z"/>
                      <path class="cls-10" d="m495.03,169.6l-4.29-2.48c-.34-.2-.93-.18-1.3.04l-4.01,2.34c-.37.22-.4.56-.05.76l4.29,2.48c.34.2.93.18,1.3-.04l4.01-2.34c.37-.22.4-.56.05-.76Z"/>
                      <path class="cls-10" d="m501.66,173.43l-4.29-2.48c-.34-.2-.93-.18-1.3.04l-4.01,2.34c-.37.22-.4.56-.05.76l4.29,2.48c.34.2.93.18,1.3-.04l4.01-2.34c.37-.22.4-.56.05-.76Z"/>
                      <path class="cls-10" d="m508.29,177.26l-4.29-2.48c-.34-.2-.93-.18-1.3.04l-4.01,2.34c-.37.22-.4.56-.05.76l4.29,2.48c.34.2.93.18,1.3-.04l4.01-2.34c.37-.22.4-.56.05-.76Z"/>
                      <path class="cls-10" d="m514.92,181.09l-4.29-2.48c-.34-.2-.93-.18-1.3.04l-4.01,2.34c-.37.22-.4.56-.05.76l4.29,2.48c.34.2.93.18,1.3-.04l4.01-2.34c.37-.22.4-.56.05-.76Z"/>
                      <path class="cls-10" d="m521.55,184.91l-4.29-2.48c-.34-.2-.93-.18-1.3.04l-4.01,2.34c-.37.22-.4.56-.05.76l4.29,2.48c.34.2.93.18,1.3-.04l4.01-2.34c.37-.22.4-.56.05-.76Z"/>
                      <path class="cls-10" d="m528.18,188.74l-4.29-2.48c-.34-.2-.93-.18-1.3.04l-4.01,2.34c-.37.22-.4.56-.05.76l4.29,2.48c.34.2.93.18,1.3-.04l4.01-2.34c.37-.22.4-.56.05-.76Z"/>
                      <path class="cls-10" d="m534.81,192.57l-4.29-2.48c-.34-.2-.93-.18-1.3.04l-4.01,2.34c-.37.22-.4.56-.05.76l4.29,2.48c.34.2.93.18,1.3-.04l4.01-2.34c.37-.22.4-.56.05-.76Z"/>
                      <path class="cls-10" d="m459.11,155.93l-4.29-2.48c-.34-.2-.93-.18-1.3.04l-4.01,2.34c-.37.22-.4.56-.05.76l4.29,2.48c.34.2.93.18,1.3-.04l4.01-2.34c.37-.22.4-.56.05-.76Z"/>
                      <path class="cls-10" d="m452.51,152.12l-4.29-2.48c-.34-.2-.93-.18-1.3.04l-4.01,2.34c-.37.22-.4.56-.05.76l4.29,2.48c.34.2.93.18,1.3-.04l4.01-2.34c.37-.22.4-.56.05-.76Z"/>
                      <path class="cls-10" d="m445.92,148.31l-4.29-2.48c-.34-.2-.93-.18-1.3.04l-4.01,2.34c-.37.22-.4.56-.05.76l4.29,2.48c.34.2.93.18,1.3-.04l4.01-2.34c.37-.22.4-.56.05-.76Z"/>
                      <path class="cls-10" d="m439.32,144.5l-4.29-2.48c-.34-.2-.93-.18-1.3.04l-4.01,2.34c-.37.22-.4.56-.05.76l4.29,2.48c.34.2.93.18,1.3-.04l4.01-2.34c.37-.22.4-.56.05-.76Z"/>
                      <path class="cls-10" d="m432.93,148.23l-4.29-2.48c-.34-.2-.93-.18-1.3.04l-1.32.77c-.37.22-.4.56-.05.76l4.29,2.48c.34.2.93.18,1.3-.04l1.32-.77c.37-.22.4-.56.05-.76Z"/>
                      <path class="cls-10" d="m441.54,153.2l-4.29-2.48c-.34-.2-.93-.18-1.3.04l-1.32.77c-.37.22-.4.56-.05.76l4.29,2.48c.34.2.93.18,1.3-.04l1.32-.77c.37-.22.4-.56.05-.76Z"/>
                      <path class="cls-10" d="m448.11,156.99l-4.29-2.48c-.34-.2-.93-.18-1.3.04l-1.32.77c-.37.22-.4.56-.05.76l4.29,2.48c.34.2.93.18,1.3-.04l1.32-.77c.37-.22.4-.56.05-.76Z"/>
                      <path class="cls-10" d="m454.68,160.79l-4.29-2.48c-.34-.2-.93-.18-1.3.04l-1.32.77c-.37.22-.4.56-.05.76l4.29,2.48c.34.2.93.18,1.3-.04l1.32-.77c.37-.22.4-.56.05-.76Z"/>
                      <path class="cls-10" d="m461.25,164.58l-4.29-2.48c-.34-.2-.93-.18-1.3.04l-1.32.77c-.37.22-.4.56-.05.76l4.29,2.48c.34.2.93.18,1.3-.04l1.32-.77c.37-.22.4-.56.05-.76Z"/>
                      <path class="cls-10" d="m497.93,185.76l-4.29-2.48c-.34-.2-.93-.18-1.3.04l-1.32.77c-.37.22-.4.56-.05.76l4.29,2.48c.34.2.93.18,1.3-.04l1.32-.77c.37-.22.4-.56.05-.76Z"/>
                      <path class="cls-10" d="m504.5,189.55l-4.29-2.48c-.34-.2-.93-.18-1.3.04l-1.32.77c-.37.22-.4.56-.05.76l4.29,2.48c.34.2.93.18,1.3-.04l1.32-.77c.37-.22.4-.56.05-.76Z"/>
                      <path class="cls-10" d="m511.07,193.34l-4.29-2.48c-.34-.2-.93-.18-1.3.04l-1.32.77c-.37.22-.4.56-.05.76l4.29,2.48c.34.2.93.18,1.3-.04l1.32-.77c.37-.22.4-.56.05-.76Z"/>
                      <path class="cls-10" d="m517.64,197.14l-4.29-2.48c-.34-.2-.93-.18-1.3.04l-1.32.77c-.37.22-.4.56-.05.76l4.29,2.48c.34.2.93.18,1.3-.04l1.32-.77c.37-.22.4-.56.05-.76Z"/>
                      <path class="cls-10" d="m465.74,159.75l-4.29-2.48c-.34-.2-.93-.18-1.3.04l-4.01,2.34c-.37.22-.4.56-.05.76l4.29,2.48c.34.2.93.18,1.3-.04l4.01-2.34c.37-.22.4-.56.05-.76Z"/>
                      <path class="cls-10" d="m472.37,163.58l-4.29-2.48c-.34-.2-.93-.18-1.3.04l-4.01,2.34c-.37.22-.4.56-.05.76l4.29,2.48c.34.2.93.18,1.3-.04l4.01-2.34c.37-.22.4-.56.05-.76Z"/>
                      <path class="cls-10" d="m479,167.41l-4.29-2.48c-.34-.2-.93-.18-1.3.04l-4.01,2.34c-.37.22-.4.56-.05.76l4.29,2.48c.34.2.93.18,1.3-.04l4.01-2.34c.37-.22.4-.56.05-.76Z"/>
                      <path class="cls-10" d="m485.63,171.24l-4.29-2.48c-.34-.2-.93-.18-1.3.04l-4.01,2.34c-.37.22-.4.56-.05.76l4.29,2.48c.34.2.93.18,1.3-.04l4.01-2.34c.37-.22.4-.56.05-.76Z"/>
                      <path class="cls-10" d="m492.26,175.07l-4.29-2.48c-.34-.2-.93-.18-1.3.04l-4.01,2.34c-.37.22-.4.56-.05.76l4.29,2.48c.34.2.93.18,1.3-.04l4.01-2.34c.37-.22.4-.56.05-.76Z"/>
                      <path class="cls-10" d="m498.89,178.89l-4.29-2.48c-.34-.2-.93-.18-1.3.04l-4.01,2.34c-.37.22-.4.56-.05.76l4.29,2.48c.34.2.93.18,1.3-.04l4.01-2.34c.37-.22.4-.56.05-.76Z"/>
                      <path class="cls-10" d="m505.52,182.72l-4.29-2.48c-.34-.2-.93-.18-1.3.04l-4.01,2.34c-.37.22-.4.56-.05.76l4.29,2.48c.34.2.93.18,1.3-.04l4.01-2.34c.37-.22.4-.56.05-.76Z"/>
                      <path class="cls-10" d="m512.15,186.55l-4.29-2.48c-.34-.2-.93-.18-1.3.04l-4.01,2.34c-.37.22-.4.56-.05.76l4.29,2.48c.34.2.93.18,1.3-.04l4.01-2.34c.37-.22.4-.56.05-.76Z"/>
                      <path class="cls-10" d="m518.79,190.38l-4.29-2.48c-.34-.2-.93-.18-1.3.04l-4.01,2.34c-.37.22-.4.56-.05.76l4.29,2.48c.34.2.93.18,1.3-.04l4.01-2.34c.37-.22.4-.56.05-.76Z"/>
                      <path class="cls-10" d="m465.43,138.4l-12.64-7.3c-.34-.2-.93-.18-1.3.04l-4.01,2.34c-.37.22-.4.56-.05.76l12.64,7.3c.34.2.93.18,1.3-.04l4.01-2.34c.37-.22.4-.56.05-.76Z"/>
                      <path class="cls-10" d="m546.89,185.43l-12.64-7.3c-.34-.2-.93-.18-1.3.04l-4.01,2.34c-.37.22-.4.56-.05.76l12.64,7.3c.34.2.93.18,1.3-.04l4.01-2.34c.37-.22.4-.56.05-.76Z"/>
                      <path class="cls-10" d="m534.59,170.32l-4.29-2.48c-.34-.2-.93-.18-1.3.04l-4.77,2.79c-.37.22-.4.56-.05.76l4.29,2.48c.34.2.93.18,1.3-.04l4.77-2.79c.37-.22.4-.56.05-.76Z"/>
                      <path class="cls-10" d="m486.44,142.52l-6.87-3.96c-.34-.2-.93-.18-1.3.04l-4.77,2.79c-.37.22-.4.56-.05.76l6.87,3.96c.34.2.93.18,1.3-.04l4.77-2.79c.37-.22.4-.56.05-.76Z"/>
                      <path class="cls-10" d="m528.2,166.63l-6.87-3.96c-.34-.2-.93-.18-1.3.04l-4.77,2.79c-.37.22-.4.56-.05.76l6.87,3.96c.34.2.93.18,1.3-.04l4.77-2.79c.37-.22.4-.56.05-.76Z"/>
                      <path class="cls-10" d="m496,148.04l-6.87-3.96c-.34-.2-.93-.18-1.3.04l-4.77,2.79c-.37.22-.4.56-.05.76l6.87,3.96c.34.2.93.18,1.3-.04l4.77-2.79c.37-.22.4-.56.05-.76Z"/>
                      <path class="cls-10" d="m483.05,147.68l29.85,17.24c.37.21.95.22,1.3.02l4.87-2.84c.35-.2.33-.54-.04-.76l-29.85-17.24-6.13,3.58Z"/>
                      <path class="cls-10" d="m546.8,180.93l4.78,2.76c.28.16.76.15,1.07-.03l1.95-1.14c.31-.18.33-.46.04-.62l-4.78-2.76c-.28-.16-.76-.15-1.07.03l-1.95,1.14c-.31.18-.33.46-.04.62Z"/>
                      <path class="cls-10" d="m540.12,177.07l4.78,2.76c.28.16.76.15,1.07-.03l1.95-1.14c.31-.18.33-.46.04-.62l-4.78-2.76c-.28-.16-.76-.15-1.07.03l-1.95,1.14c-.31.18-.33.46-.04.62Z"/>
                      <path class="cls-10" d="m533.48,173.24l4.78,2.76c.28.16.76.15,1.07-.03l1.95-1.14c.31-.18.33-.46.04-.62l-4.78-2.76c-.28-.16-.76-.15-1.07.03l-1.95,1.14c-.31.18-.33.46-.04.62Z"/>
                      <path class="cls-10" d="m536.67,179.08l4.78,2.76c.28.16.76.15,1.07-.03l1.95-1.14c.31-.18.33-.46.04-.62l-4.78-2.76c-.28-.16-.76-.15-1.07.03l-1.95,1.14c-.31.18-.33.46-.04.62Z"/>
                    </g>
                  </g>
                </g>
              </g>
            </g>
            <g class="cls-16">
              <path class="cls-10" d="m370.53,182.88l-4.25-2.46c-.34-.2-.3-.54.1-.77l5.02-2.9c.39-.23.99-.25,1.33-.06l4.25,2.45c.34.2.3.54-.1.77l-5.02,2.9c-.39.23-.99.25-1.33.06Z"/>
              <path class="cls-10" d="m377.09,186.68l-4.25-2.45c-.34-.2-.3-.54.1-.77l5.02-2.9c.39-.23.99-.25,1.33-.06l4.25,2.45c.34.2.3.54-.1.77l-5.02,2.9c-.39.23-.99.25-1.33.06Z"/>
              <path class="cls-10" d="m383.66,190.47l-4.25-2.45c-.34-.2-.3-.54.1-.77l5.02-2.9c.39-.23.99-.25,1.33-.06l4.25,2.45c.34.2.3.54-.1.77l-5.02,2.9c-.39.23-.99.25-1.33.06Z"/>
              <path class="cls-10" d="m392.74,187.34l-4.25-2.45c-.34-.2-.3-.54.1-.77l4.21-2.43c.39-.23.99-.25,1.33-.06l4.25,2.45c.34.2.3.54-.1.77l-4.21,2.43c-.39.23-.99.25-1.33.06Z"/>
              <path class="cls-10" d="m399.31,191.13l-4.25-2.46c-.34-.2-.3-.54.1-.77l4.21-2.43c.39-.23.99-.25,1.33-.06l4.25,2.45c.34.2.3.54-.1.77l-4.21,2.43c-.39.23-.99.25-1.33.06Z"/>
              <path class="cls-10" d="m405.88,194.92l-4.25-2.46c-.34-.2-.3-.54.1-.77l4.21-2.43c.39-.23.99-.25,1.33-.06l4.25,2.45c.34.2.3.54-.1.77l-4.21,2.43c-.39.23-.99.25-1.33.06Z"/>
              <path class="cls-10" d="m412.44,198.71l-4.25-2.45c-.34-.2-.3-.54.1-.77l4.21-2.43c.39-.23.99-.25,1.33-.06l4.25,2.45c.34.2.3.54-.1.77l-4.21,2.43c-.39.23-.99.25-1.33.06Z"/>
              <path class="cls-10" d="m419.01,202.5l-4.25-2.46c-.34-.2-.3-.54.1-.77l4.21-2.43c.39-.23.99-.25,1.33-.06l4.25,2.45c.34.2.3.54-.1.77l-4.21,2.43c-.39.23-.99.25-1.33.06Z"/>
              <path class="cls-10" d="m425.58,206.29l-4.25-2.46c-.34-.2-.3-.54.1-.77l4.21-2.43c.39-.23.99-.25,1.33-.06l4.25,2.45c.34.2.3.54-.1.77l-4.21,2.43c-.39.23-.99.25-1.33.06Z"/>
              <path class="cls-10" d="m432.14,210.08l-4.25-2.45c-.34-.2-.3-.54.1-.77l4.21-2.43c.39-.23.99-.25,1.33-.06l4.25,2.45c.34.2.3.54-.1.77l-4.21,2.43c-.39.23-.99.25-1.33.06Z"/>
              <path class="cls-10" d="m438.71,213.87l-4.25-2.46c-.34-.2-.3-.54.1-.77l4.21-2.43c.39-.23.99-.25,1.33-.06l4.25,2.45c.34.2.3.54-.1.77l-4.21,2.43c-.39.23-.99.25-1.33.06Z"/>
              <path class="cls-10" d="m445.28,217.67l-4.25-2.45c-.34-.2-.3-.54.1-.77l4.21-2.43c.39-.23.99-.25,1.33-.06l4.25,2.45c.34.2.3.54-.1.77l-4.21,2.43c-.39.23-.99.25-1.33.06Z"/>
              <path class="cls-10" d="m451.84,221.46l-4.25-2.45c-.34-.2-.3-.54.1-.77l4.21-2.43c.39-.23.99-.25,1.33-.06l4.25,2.45c.34.2.3.54-.1.77l-4.21,2.43c-.39.23-.99.25-1.33.06Z"/>
              <path class="cls-10" d="m402.42,185.54l-4.25-2.45c-.34-.2-.3-.54.1-.77l4.21-2.43c.39-.23.99-.25,1.33-.06l4.25,2.45c.34.2.3.54-.1.77l-4.21,2.43c-.39.23-.99.25-1.33.06Z"/>
              <path class="cls-10" d="m395.75,181.69l-4.25-2.45c-.34-.2-.3-.54.1-.77l4.21-2.43c.39-.23.99-.25,1.33-.06l4.25,2.45c.34.2.3.54-.1.77l-4.21,2.43c-.39.23-.99.25-1.33.06Z"/>
              <path class="cls-10" d="m389.08,177.84l-9.16-5.29c-.34-.2-.3-.54.1-.77l4.21-2.43c.39-.23.99-.25,1.33-.06l9.16,5.29c.34.2.3.54-.1.77l-4.21,2.43c-.39.23-.99.25-1.33.06Z"/>
              <path class="cls-10" d="m393.74,173.15l-7.43-4.29c-.34-.2-.3-.54.1-.77l4.21-2.43c.39-.23.99-.25,1.33-.06l7.43,4.29c.34.2.3.54-.1.77l-4.21,2.43c-.39.23-.99.25-1.33.06Z"/>
              <path class="cls-10" d="m408.99,189.33l-4.25-2.45c-.34-.2-.3-.54.1-.77l4.21-2.43c.39-.23.99-.25,1.33-.06l4.25,2.45c.34.2.3.54-.1.77l-4.21,2.43c-.39.23-.99.25-1.33.06Z"/>
              <path class="cls-10" d="m415.55,193.12l-4.25-2.45c-.34-.2-.3-.54.1-.77l4.21-2.43c.39-.23.99-.25,1.33-.06l4.25,2.45c.34.2.3.54-.1.77l-4.21,2.43c-.39.23-.99.25-1.33.06Z"/>
              <path class="cls-10" d="m422.12,196.91l-4.25-2.45c-.34-.2-.3-.54.1-.77l4.21-2.43c.39-.23.99-.25,1.33-.06l4.25,2.45c.34.2.3.54-.1.77l-4.21,2.43c-.39.23-.99.25-1.33.06Z"/>
              <path class="cls-10" d="m428.69,200.71l-4.25-2.45c-.34-.2-.3-.54.1-.77l4.21-2.43c.39-.23.99-.25,1.33-.06l4.25,2.45c.34.2.3.54-.1.77l-4.21,2.43c-.39.23-.99.25-1.33.06Z"/>
              <path class="cls-10" d="m435.25,204.5l-4.25-2.45c-.34-.2-.3-.54.1-.77l4.21-2.43c.39-.23.99-.25,1.33-.06l4.25,2.45c.34.2.3.54-.1.77l-4.21,2.43c-.39.23-.99.25-1.33.06Z"/>
              <path class="cls-10" d="m441.82,208.29l-4.25-2.46c-.34-.2-.3-.54.1-.77l4.21-2.43c.39-.23.99-.25,1.33-.06l4.25,2.45c.34.2.3.54-.1.77l-4.21,2.43c-.39.23-.99.25-1.33.06Z"/>
              <path class="cls-10" d="m448.39,212.08l-4.25-2.46c-.34-.2-.3-.54.1-.77l4.21-2.43c.39-.23.99-.25,1.33-.06l4.25,2.45c.34.2.3.54-.1.77l-4.21,2.43c-.39.23-.99.25-1.33.06Z"/>
              <path class="cls-10" d="m454.95,215.87l-4.25-2.45c-.34-.2-.3-.54.1-.77l4.21-2.43c.39-.23.99-.25,1.33-.06l4.25,2.45c.34.2.3.54-.1.77l-4.21,2.43c-.39.23-.99.25-1.33.06Z"/>
              <path class="cls-10" d="m461.52,219.66l-4.25-2.46c-.34-.2-.3-.54.1-.77l4.21-2.43c.39-.23.99-.25,1.33-.06l4.25,2.45c.34.2.3.54-.1.77l-4.21,2.43c-.39.23-.99.25-1.33.06Z"/>
              <path class="cls-10" d="m473.19,226.4l-9.28-5.36c-.34-.2-.3-.54.1-.77l4.21-2.43c.39-.23.99-.25,1.33-.06l9.28,5.36c.34.2.3.54-.1.77l-4.21,2.43c-.39.23-.99.25-1.33.06Z"/>
              <path class="cls-10" d="m485.98,219.02l-7.83-4.52c-.34-.2-.3-.54.1-.77l4.21-2.43c.39-.23.99-.25,1.33-.06l7.83,4.52c.34.2.3.54-.1.77l-4.21,2.43c-.39.23-.99.25-1.33.06Z"/>
              <path class="cls-10" d="m420.48,188.59l-4.25-2.45c-.34-.2-.3-.54.1-.77l4.21-2.43c.39-.23.99-.25,1.33-.06l4.25,2.45c.34.2.3.54-.1.77l-4.21,2.43c-.39.23-.99.25-1.33.06Z"/>
              <path class="cls-10" d="m413.75,184.7l-4.25-2.45c-.34-.2-.3-.54.1-.77l4.21-2.43c.39-.23.99-.25,1.33-.06l4.25,2.46c.34.2.3.54-.1.77l-4.21,2.43c-.39.23-.99.25-1.33.06Z"/>
              <path class="cls-10" d="m407.03,180.82l-4.25-2.45c-.34-.2-.3-.54.1-.77l4.21-2.43c.39-.23.99-.25,1.33-.06l4.25,2.45c.34.2.3.54-.1.77l-4.21,2.43c-.39.23-.99.25-1.33.06Z"/>
              <path class="cls-10" d="m400.3,176.93l-4.25-2.45c-.34-.2-.3-.54.1-.77l4.21-2.43c.39-.23.99-.25,1.33-.06l4.25,2.45c.34.2.3.54-.1.77l-4.21,2.43c-.39.23-.99.25-1.33.06Z"/>
              <path class="cls-10" d="m427.05,192.38l-4.25-2.45c-.34-.2-.3-.54.1-.77l4.21-2.43c.39-.23.99-.25,1.33-.06l4.25,2.45c.34.2.3.54-.1.77l-4.21,2.43c-.39.23-.99.25-1.33.06Z"/>
              <path class="cls-10" d="m433.62,196.17l-4.25-2.45c-.34-.2-.3-.54.1-.77l4.21-2.43c.39-.23.99-.25,1.33-.06l4.25,2.45c.34.2.3.54-.1.77l-4.21,2.43c-.39.23-.99.25-1.33.06Z"/>
              <path class="cls-10" d="m440.18,199.96l-4.25-2.45c-.34-.2-.3-.54.1-.77l4.21-2.43c.39-.23.99-.25,1.33-.06l4.25,2.45c.34.2.3.54-.1.77l-4.21,2.43c-.39.23-.99.25-1.33.06Z"/>
              <path class="cls-10" d="m446.75,203.75l-4.25-2.45c-.34-.2-.3-.54.1-.77l4.21-2.43c.39-.23.99-.25,1.33-.06l4.25,2.45c.34.2.3.54-.1.77l-4.21,2.43c-.39.23-.99.25-1.33.06Z"/>
              <path class="cls-10" d="m453.32,207.55l-4.25-2.46c-.34-.2-.3-.54.1-.77l4.21-2.43c.39-.23.99-.25,1.33-.06l4.25,2.45c.34.2.3.54-.1.77l-4.21,2.43c-.39.23-.99.25-1.33.06Z"/>
              <path class="cls-10" d="m459.88,211.34l-4.25-2.46c-.34-.2-.3-.54.1-.77l4.21-2.43c.39-.23.99-.25,1.33-.06l4.25,2.45c.34.2.3.54-.1.77l-4.21,2.43c-.39.23-.99.25-1.33.06Z"/>
              <path class="cls-10" d="m466.45,215.13l-4.25-2.45c-.34-.2-.3-.54.1-.77l4.21-2.43c.39-.23.99-.25,1.33-.06l4.25,2.45c.34.2.3.54-.1.77l-4.21,2.43c-.39.23-.99.25-1.33.06Z"/>
              <path class="cls-10" d="m473.02,218.92l-4.25-2.46c-.34-.2-.3-.54.1-.77l4.21-2.43c.39-.23.99-.25,1.33-.06l4.25,2.45c.34.2.3.54-.1.77l-4.21,2.43c-.39.23-.99.25-1.33.06Z"/>
              <path class="cls-10" d="m479.58,222.71l-4.25-2.46c-.34-.2-.3-.54.1-.77l4.21-2.43c.39-.23.99-.25,1.33-.06l4.25,2.45c.34.2.3.54-.1.77l-4.21,2.43c-.39.23-.99.25-1.33.06Z"/>
              <path class="cls-10" d="m417.03,179.21l-4.25-2.45c-.34-.2-.3-.54.1-.77l4.21-2.43c.39-.23.99-.25,1.33-.06l4.25,2.45c.34.2.3.54-.1.77l-4.21,2.43c-.39.23-.99.25-1.33.06Z"/>
              <path class="cls-10" d="m410.49,175.44l-4.25-2.45c-.34-.2-.3-.54.1-.77l4.21-2.43c.39-.23.99-.25,1.33-.06l4.25,2.45c.34.2.3.54-.1.77l-4.21,2.43c-.39.23-.99.25-1.33.06Z"/>
              <path class="cls-10" d="m403.96,171.67l-4.25-2.45c-.34-.2-.3-.54.1-.77l4.21-2.43c.39-.23.99-.25,1.33-.06l4.25,2.45c.34.2.3.54-.1.77l-4.21,2.43c-.39.23-.99.25-1.33.06Z"/>
              <path class="cls-10" d="m397.43,167.9l-4.25-2.45c-.34-.2-.3-.54.1-.77l4.21-2.43c.39-.23.99-.25,1.33-.06l4.25,2.45c.34.2.3.54-.1.77l-4.21,2.43c-.39.23-.99.25-1.33.06Z"/>
              <path class="cls-10" d="m404.14,164.02l-4.25-2.45c-.34-.2-.3-.54.1-.77l1.39-.8c.39-.23.99-.25,1.33-.06l4.25,2.45c.34.2.3.54-.1.77l-1.39.8c-.39.23-.99.25-1.33.06Z"/>
              <path class="cls-10" d="m412.67,168.94l-4.25-2.45c-.34-.2-.3-.54.1-.77l1.39-.8c.39-.23.99-.25,1.33-.06l4.25,2.46c.34.2.3.54-.1.77l-1.39.8c-.39.23-.99.25-1.33.06Z"/>
              <path class="cls-10" d="m419.18,172.7l-4.25-2.45c-.34-.2-.3-.54.1-.77l1.39-.8c.39-.23.99-.25,1.33-.06l4.25,2.45c.34.2.3.54-.1.77l-1.39.8c-.39.23-.99.25-1.33.06Z"/>
              <path class="cls-10" d="m425.68,176.45l-4.25-2.46c-.34-.2-.3-.54.1-.77l1.39-.8c.39-.23.99-.25,1.33-.06l4.25,2.45c.34.2.3.54-.1.77l-1.39.8c-.39.23-.99.25-1.33.06Z"/>
              <path class="cls-10" d="m432.19,180.21l-4.25-2.45c-.34-.2-.3-.54.1-.77l1.39-.8c.39-.23.99-.25,1.33-.06l4.25,2.45c.34.2.3.54-.1.77l-1.39.8c-.39.23-.99.25-1.33.06Z"/>
              <path class="cls-10" d="m468.52,201.18l-4.25-2.45c-.34-.2-.3-.54.1-.77l1.39-.8c.39-.23.99-.25,1.33-.06l4.25,2.46c.34.2.3.54-.1.77l-1.39.8c-.39.23-.99.25-1.33.06Z"/>
              <path class="cls-10" d="m475.02,204.94l-4.25-2.45c-.34-.2-.3-.54.1-.77l1.39-.8c.39-.23.99-.25,1.33-.06l4.25,2.45c.34.2.3.54-.1.77l-1.39.8c-.39.23-.99.25-1.33.06Z"/>
              <path class="cls-10" d="m481.53,208.7l-4.25-2.46c-.34-.2-.3-.54.1-.77l1.39-.8c.39-.23.99-.25,1.33-.06l4.25,2.45c.34.2.3.54-.1.77l-1.39.8c-.39.23-.99.25-1.33.06Z"/>
              <path class="cls-10" d="m488.04,212.45l-4.25-2.45c-.34-.2-.3-.54.1-.77l1.39-.8c.39-.23.99-.25,1.33-.06l4.25,2.46c.34.2.3.54-.1.77l-1.39.8c-.39.23-.99.25-1.33.06Z"/>
              <path class="cls-10" d="m423.59,183l-4.25-2.45c-.34-.2-.3-.54.1-.77l4.21-2.43c.39-.23.99-.25,1.33-.06l4.25,2.46c.34.2.3.54-.1.77l-4.21,2.43c-.39.23-.99.25-1.33.06Z"/>
              <path class="cls-10" d="m430.16,186.79l-4.25-2.45c-.34-.2-.3-.54.1-.77l4.21-2.43c.39-.23.99-.25,1.33-.06l4.25,2.45c.34.2.3.54-.1.77l-4.21,2.43c-.39.23-.99.25-1.33.06Z"/>
              <path class="cls-10" d="m436.73,190.59l-4.25-2.45c-.34-.2-.3-.54.1-.77l4.21-2.43c.39-.23.99-.25,1.33-.06l4.25,2.45c.34.2.3.54-.1.77l-4.21,2.43c-.39.23-.99.25-1.33.06Z"/>
              <path class="cls-10" d="m443.29,194.38l-4.25-2.45c-.34-.2-.3-.54.1-.77l4.21-2.43c.39-.23.99-.25,1.33-.06l4.25,2.46c.34.2.3.54-.1.77l-4.21,2.43c-.39.23-.99.25-1.33.06Z"/>
              <path class="cls-10" d="m449.86,198.17l-4.25-2.45c-.34-.2-.3-.54.1-.77l4.21-2.43c.39-.23.99-.25,1.33-.06l4.25,2.45c.34.2.3.54-.1.77l-4.21,2.43c-.39.23-.99.25-1.33.06Z"/>
              <path class="cls-10" d="m456.43,201.96l-4.25-2.45c-.34-.2-.3-.54.1-.77l4.21-2.43c.39-.23.99-.25,1.33-.06l4.25,2.45c.34.2.3.54-.1.77l-4.21,2.43c-.39.23-.99.25-1.33.06Z"/>
              <path class="cls-10" d="m462.99,205.75l-4.25-2.45c-.34-.2-.3-.54.1-.77l4.21-2.43c.39-.23.99-.25,1.33-.06l4.25,2.46c.34.2.3.54-.1.77l-4.21,2.43c-.39.23-.99.25-1.33.06Z"/>
              <path class="cls-10" d="m469.56,209.54l-4.25-2.45c-.34-.2-.3-.54.1-.77l4.21-2.43c.39-.23.99-.25,1.33-.06l4.25,2.45c.34.2.3.54-.1.77l-4.21,2.43c-.39.23-.99.25-1.33.06Z"/>
              <path class="cls-10" d="m476.13,213.33l-4.25-2.45c-.34-.2-.3-.54.1-.77l4.21-2.43c.39-.23.99-.25,1.33-.06l4.25,2.45c.34.2.3.54-.1.77l-4.21,2.43c-.39.23-.99.25-1.33.06Z"/>
              <path class="cls-10" d="m386.05,183.47l-12.52-7.23c-.34-.2-.3-.54.1-.77l4.21-2.43c.39-.23.99-.25,1.33-.06l12.52,7.23c.34.2.3.54-.1.77l-4.21,2.43c-.39.23-.99.25-1.33.06Z"/>
              <path class="cls-10" d="m466.72,230.05l-12.52-7.23c-.34-.2-.3-.54.1-.77l4.21-2.43c.39-.23.99-.25,1.33-.06l12.52,7.23c.34.2.3.54-.1.77l-4.21,2.43c-.39.23-.99.25-1.33.06Z"/>
              <path class="cls-10" d="m440.46,223.26l-4.25-2.45c-.34-.2-.3-.54.1-.77l5.02-2.9c.39-.23.99-.25,1.33-.06l4.25,2.45c.34.2.3.54-.1.77l-5.02,2.9c-.39.23-.99.25-1.33.06Z"/>
              <path class="cls-10" d="m392.78,195.73l-6.8-3.93c-.34-.2-.3-.54.1-.77l5.02-2.9c.39-.23.99-.25,1.33-.06l6.8,3.93c.34.2.3.54-.1.77l-5.02,2.9c-.39.23-.99.25-1.33.06Z"/>
              <path class="cls-10" d="m434.14,219.61l-6.8-3.93c-.34-.2-.3-.54.1-.77l5.02-2.9c.39-.23.99-.25,1.33-.06l6.8,3.93c.34.2.3.54-.1.77l-5.02,2.9c-.39.23-.99.25-1.33.06Z"/>
              <path class="cls-10" d="m402.25,201.2l-6.8-3.93c-.34-.2-.3-.54.1-.77l5.02-2.9c.39-.23.99-.25,1.33-.06l6.8,3.93c.34.2.3.54-.1.77l-5.02,2.9c-.39.23-.99.25-1.33.06Z"/>
              <path class="cls-10" d="m401.94,193.58l29.57,17.07c.37.21.37.56,0,.77l-5.12,2.95c-.37.21-.96.21-1.33,0l-29.57-17.07,6.45-3.72Z"/>
              <path class="cls-10" d="m458.82,230.13l4.74,2.73c.28.16.24.44-.08.63l-2.05,1.19c-.32.19-.81.21-1.09.05l-4.74-2.73c-.28-.16-.24-.44.08-.63l2.05-1.19c.32-.19.81-.21,1.09-.05Z"/>
              <path class="cls-10" d="m452.19,226.31l4.74,2.73c.28.16.24.44-.08.63l-2.05,1.19c-.32.19-.81.21-1.09.05l-4.74-2.73c-.28-.16-.24-.44.08-.63l2.05-1.19c.32-.19.81-.21,1.09-.05Z"/>
              <path class="cls-10" d="m445.63,222.52l4.74,2.73c.28.16.24.44-.08.63l-2.05,1.19c-.32.19-.81.21-1.09.05l-4.74-2.73c-.28-.16-.24-.44.08-.63l2.05-1.19c.32-.19.81-.21,1.09-.05Z"/>
              <path class="cls-10" d="m455.82,224.22l4.74,2.73c.28.16.24.44-.08.63l-2.05,1.19c-.32.19-.81.21-1.09.05l-4.74-2.73c-.28-.16-.24-.44.08-.63l2.05-1.19c.32-.19.81-.21,1.09-.05Z"/>
            </g>
          </g>
          <g>
            <path class="cls-9" d="m522.81,122.05c-.32,0-.66-.1-.99-.28-1-.58-1.63-1.89-1.39-2.93.12-.5.41-.87.83-1.06.46-.2,1.04-.14,1.58.17,1,.58,1.63,1.9,1.39,2.93-.12.5-.41.87-.83,1.06-.18.08-.38.12-.58.12Zm-.96-3.93c-.14,0-.28.03-.41.08-.29.12-.49.39-.57.74-.2.85.33,1.94,1.17,2.43.41.24.83.29,1.17.14.29-.12.49-.39.57-.74.2-.85-.33-1.95-1.17-2.43-.26-.15-.52-.22-.76-.22Z"/>
            <path class="cls-9" d="m528.23,125.18c-.32,0-.66-.1-.99-.28-1-.58-1.63-1.89-1.39-2.93.12-.5.41-.87.83-1.06.46-.2,1.04-.14,1.58.17,1,.58,1.63,1.9,1.39,2.93-.12.5-.41.87-.83,1.06-.18.08-.38.12-.58.12Zm-.96-3.93c-.14,0-.28.03-.41.08-.29.12-.49.39-.57.74-.2.85.33,1.94,1.17,2.43.41.24.83.29,1.17.14.29-.12.49-.39.57-.74.2-.85-.33-1.95-1.17-2.43-.26-.15-.52-.22-.76-.22Z"/>
            <path class="cls-9" d="m534.84,127.07c-.22.95-1.15,1.28-2.07.75s-1.5-1.73-1.28-2.68,1.15-1.28,2.07-.75c.93.53,1.5,1.73,1.28,2.68Z"/>
          </g>
          <polygon class="cls-9" points="431.02 67.33 428.13 65.66 428.35 64.32 431.25 65.99 431.02 67.33"/>
          <polygon class="cls-9" points="435.23 69.76 432.34 68.09 432.56 66.75 435.46 68.42 435.23 69.76"/>
          <polygon class="cls-9" points="426.86 64.93 420.51 61.26 420.73 59.92 427.08 63.59 426.86 64.93"/>
        </g>
        <g>
          <g>
            <polygon class="cls-9" points="427.66 90.19 422.81 87.39 423 86.27 427.84 89.07 427.66 90.19"/>
            <polygon class="cls-9" points="431.79 92.58 429.37 91.18 429.56 90.06 431.98 91.46 431.79 92.58"/>
            <polygon class="cls-9" points="428.65 93.64 426.58 92.45 426.77 91.33 428.83 92.52 428.65 93.64"/>
            <polygon class="cls-9" points="432.1 95.64 429.68 94.24 429.87 93.12 432.29 94.52 432.1 95.64"/>
            <polygon class="cls-9" points="435.66 100.58 426.14 95.08 426.33 93.96 435.85 99.46 435.66 100.58"/>
            <polygon class="cls-9" points="427.41 122.57 417.88 117.07 418.07 115.95 427.6 121.45 427.41 122.57"/>
            <polygon class="cls-9" points="431.07 124.68 428.65 123.28 428.83 122.16 431.26 123.56 431.07 124.68"/>
            <polygon class="cls-9" points="427.76 98.9 425.7 97.7 425.89 96.58 427.95 97.78 427.76 98.9"/>
            <polygon class="cls-9" points="431.22 100.89 428.8 99.49 428.99 98.37 431.41 99.77 431.22 100.89"/>
            <polygon class="cls-9" points="430.49 103.35 425.26 100.33 425.45 99.21 430.68 102.23 430.49 103.35"/>
            <polygon class="cls-9" points="434 105.38 431.58 103.98 431.76 102.86 434.19 104.26 434 105.38"/>
            <polygon class="cls-9" points="437.52 107.41 435.1 106.01 435.29 104.89 437.71 106.29 437.52 107.41"/>
            <polygon class="cls-9" points="443.21 110.69 438.62 108.05 438.81 106.93 443.39 109.57 443.21 110.69"/>
            <polygon class="cls-9" points="439.58 114.36 437.15 112.96 437.34 111.84 439.76 113.24 439.58 114.36"/>
            <polygon class="cls-9" points="445.26 117.64 440.68 114.99 440.86 113.87 445.45 116.52 445.26 117.64"/>
            <polygon class="cls-9" points="426.8 106.98 424.38 105.58 424.57 104.46 426.99 105.86 426.8 106.98"/>
            <polygon class="cls-9" points="430.32 109.02 427.9 107.62 428.09 106.5 430.51 107.9 430.32 109.02"/>
            <polygon class="cls-9" points="436.01 112.3 431.42 109.65 431.61 108.53 436.2 111.18 436.01 112.3"/>
            <polygon class="cls-9" points="443.46 113.72 441.03 112.32 441.22 111.2 443.65 112.6 443.46 113.72"/>
            <polygon class="cls-9" points="446.98 115.75 444.56 114.35 444.75 113.23 447.17 114.63 446.98 115.75"/>
            <polygon class="cls-9" points="452.67 119.04 448.08 116.39 448.27 115.27 452.85 117.92 452.67 119.04"/>
            <polygon class="cls-9" points="434.86 126.87 432.44 125.47 432.63 124.35 435.05 125.75 434.86 126.87"/>
            <polygon class="cls-9" points="440.55 130.15 435.96 127.5 436.15 126.38 440.73 129.03 440.55 130.15"/>
            <polygon class="cls-9" points="425.92 112.24 423.5 110.84 423.68 109.72 426.11 111.12 425.92 112.24"/>
            <polygon class="cls-9" points="431.61 115.52 427.02 112.87 427.21 111.75 431.79 114.4 431.61 115.52"/>
            <polygon class="cls-9" points="437.5 131.27 435.08 129.88 435.27 128.76 437.69 130.15 437.5 131.27"/>
            <polygon class="cls-9" points="443.19 134.56 438.6 131.91 438.79 130.79 443.37 133.44 443.19 134.56"/>
            <polygon class="cls-9" points="442.91 104.76 440.48 103.36 440.67 102.24 443.09 103.64 442.91 104.76"/>
            <polygon class="cls-9" points="439.24 102.64 436.82 101.24 437.01 100.12 439.43 101.52 439.24 102.64"/>
            <polygon class="cls-9" points="448.59 108.04 444.01 105.39 444.19 104.27 448.78 106.92 448.59 108.04"/>
            <polygon class="cls-9" points="427 104.22 424.82 102.96 425.01 101.84 427.19 103.1 427 104.22"/>
            <polygon class="cls-9" points="433.49 107.96 428.17 104.9 428.36 103.78 433.68 106.84 433.49 107.96"/>
            <polygon class="cls-9" points="439.97 111.71 434.66 108.64 434.85 107.52 440.16 110.59 439.97 111.71"/>
            <polygon class="cls-9" points="451.96 109.98 449.77 108.72 449.96 107.6 452.15 108.86 451.96 109.98"/>
            <polygon class="cls-9" points="458.44 113.73 453.13 110.66 453.32 109.54 458.63 112.61 458.44 113.73"/>
            <polygon class="cls-9" points="464.93 117.47 459.61 114.4 459.8 113.28 465.11 116.35 464.93 117.47"/>
            <polygon class="cls-9" points="429.3 111.31 423.98 108.24 424.17 107.12 429.49 110.19 429.3 111.31"/>
            <polygon class="cls-9" points="432.1 112.92 430.47 111.98 430.66 110.86 432.29 111.8 432.1 112.92"/>
            <polygon class="cls-9" points="434.91 114.55 433.28 113.6 433.46 112.48 435.1 113.43 434.91 114.55"/>
            <polygon class="cls-9" points="440.1 117.54 436.08 115.22 436.27 114.1 440.29 116.42 440.1 117.54"/>
            <polygon class="cls-9" points="445.92 112.26 444.28 111.32 444.47 110.2 446.1 111.14 445.92 112.26"/>
            <polygon class="cls-9" points="451.11 115.25 447.09 112.94 447.28 111.82 451.29 114.13 451.11 115.25"/>
            <polygon class="cls-9" points="452.2 115.88 448.18 113.57 448.37 112.45 452.39 114.76 452.2 115.88"/>
            <polygon class="cls-9" points="430.82 130.3 425.59 127.28 425.77 126.16 431.01 129.18 430.82 130.3"/>
            <polygon class="cls-9" points="434.33 132.32 431.9 130.92 432.09 129.8 434.51 131.2 434.33 132.32"/>
            <polygon class="cls-9" points="437.85 134.36 435.42 132.96 435.61 131.84 438.04 133.24 437.85 134.36"/>
            <polygon class="cls-9" points="443.53 137.64 438.95 134.99 439.14 133.87 443.72 136.52 443.53 137.64"/>
            <polygon class="cls-9" points="447.17 139.74 444.75 138.34 444.93 137.22 447.36 138.62 447.17 139.74"/>
            <polygon class="cls-9" points="452.85 143.02 448.27 140.37 448.46 139.25 453.04 141.9 452.85 143.02"/>
            <polygon class="cls-9" points="435.42 138.71 432.99 137.31 433.18 136.19 435.6 137.59 435.42 138.71"/>
            <polygon class="cls-9" points="441.1 142 436.51 139.35 436.7 138.23 441.29 140.88 441.1 142"/>
            <polygon class="cls-9" points="422.76 131.41 420.33 130.01 420.52 128.89 422.95 130.29 422.76 131.41"/>
            <polygon class="cls-9" points="426.28 133.44 423.86 132.04 424.05 130.92 426.47 132.32 426.28 133.44"/>
            <polygon class="cls-9" points="431.97 136.72 427.38 134.07 427.57 132.95 432.15 135.6 431.97 136.72"/>
            <polygon class="cls-9" points="427.33 131.17 425.15 129.9 425.33 128.78 427.52 130.05 427.33 131.17"/>
            <polygon class="cls-9" points="433.81 134.91 428.5 131.84 428.69 130.72 434 133.79 433.81 134.91"/>
            <polygon class="cls-9" points="440.3 138.65 434.98 135.58 435.17 134.46 440.49 137.53 440.3 138.65"/>
            <polygon class="cls-9" points="420.97 133.25 415.65 130.19 415.84 129.07 421.16 132.13 420.97 133.25"/>
            <polygon class="cls-9" points="423.77 134.87 422.14 133.93 422.33 132.81 423.96 133.75 423.77 134.87"/>
            <polygon class="cls-9" points="426.58 136.49 424.95 135.55 425.13 134.43 426.77 135.37 426.58 136.49"/>
            <polygon class="cls-9" points="431.77 139.49 427.75 137.17 427.94 136.05 431.96 138.37 431.77 139.49"/>
            <polygon class="cls-9" points="432.86 140.12 428.84 137.8 429.03 136.68 433.05 139 432.86 140.12"/>
            <polygon class="cls-9" points="423.36 123.11 421.73 122.17 421.92 121.05 423.55 121.99 423.36 123.11"/>
            <polygon class="cls-9" points="428.55 126.11 424.54 123.79 424.73 122.67 428.74 124.99 428.55 126.11"/>
            <polygon class="cls-9" points="433.86 129.17 429.84 126.85 430.03 125.73 434.04 128.05 433.86 129.17"/>
            <polygon class="cls-9" points="454.29 146.73 451.87 145.33 452.06 144.21 454.48 145.61 454.29 146.73"/>
            <polygon class="cls-9" points="459.98 150.01 455.39 147.37 455.58 146.25 460.16 148.89 459.98 150.01"/>
            <polygon class="cls-9" points="445.34 141.57 441.33 139.25 441.52 138.13 445.53 140.44 445.34 141.57"/>
            <polygon class="cls-9" points="450.65 144.63 446.63 142.31 446.82 141.19 450.83 143.51 450.65 144.63"/>
            <polygon class="cls-9" points="420.52 112 418.89 111.06 419.08 109.94 420.71 110.88 420.52 112"/>
            <polygon class="cls-9" points="425.71 115 421.7 112.68 421.89 111.56 425.9 113.88 425.71 115"/>
            <polygon class="cls-9" points="431.02 118.06 427 115.74 427.19 114.62 431.21 116.94 431.02 118.06"/>
          </g>
          <path class="cls-9" d="m511.13,158.9c-.37,0-.75-.11-1.12-.33l-32.46-18.74c-1.32-.76-2.18-2.7-1.91-4.31l2.08-12.38c.14-.84.58-1.49,1.19-1.78.57-.27,1.24-.21,1.88.16l32.46,18.74c1.32.76,2.18,2.7,1.91,4.31l-2.08,12.38c-.14.84-.58,1.49-1.19,1.78-.24.11-.49.17-.75.17Zm-31.47-37.25c-.2,0-.38.04-.56.12-.48.23-.82.75-.94,1.44l-2.08,12.38c-.24,1.44.52,3.17,1.69,3.84l32.46,18.74c.51.29,1.02.34,1.45.14.48-.23.82-.75.94-1.45l2.08-12.38c.24-1.44-.52-3.17-1.69-3.84l-32.46-18.74c-.3-.17-.61-.26-.9-.26Z"/>
          <path class="cls-9" d="m507.57,180.18c-.37,0-.75-.11-1.12-.32l-32.45-18.74c-1.32-.76-2.18-2.7-1.91-4.31l2.08-12.38c.14-.84.57-1.49,1.19-1.78.57-.27,1.24-.21,1.88.16l32.46,18.74c1.32.76,2.18,2.7,1.91,4.31l-2.08,12.38c-.14.84-.58,1.49-1.19,1.78-.24.11-.49.17-.75.17Zm-.89-.72c.51.29,1.02.34,1.45.14.48-.23.82-.75.94-1.45l2.08-12.38c.24-1.44-.52-3.17-1.69-3.84l-32.46-18.74c-.51-.29-1.03-.34-1.46-.14-.48.23-.82.75-.93,1.44l-2.08,12.38c-.24,1.44.52,3.17,1.69,3.84l32.45,18.74Z"/>
          <path class="cls-7" d="m480.47,138.5c.57.33,1.09.21,1.28-.31l3.78-10.34c.43-1.18,2.2-.11,2.57,1.55l2.33,10.41c.17.76.7,1.52,1.3,1.86l.56.32c.54.31,1.03.22,1.24-.23l.77-1.63c.48-1.01,2.07-.06,2.5,1.5h0c.2.72.7,1.41,1.26,1.73l.49.28c.59.34,1.11.2,1.29-.35l.7-2.16c.4-1.22,2.17-.2,2.57,1.47l2.33,9.63c.18.76.71,1.5,1.31,1.83l-26.29-15.58Z"/>
          <path class="cls-9" d="m502.65,175.28c-.65-.36-1.22-1.16-1.42-1.98l-2.33-9.63c-.25-1.02-1.08-1.81-1.66-1.84-.23-.01-.39.11-.48.38l-.7,2.16c-.1.31-.29.52-.56.63-.31.12-.68.07-1.06-.15l-.49-.28c-.61-.35-1.15-1.09-1.37-1.87-.28-.99-1.05-1.7-1.6-1.75-.22-.02-.38.07-.48.29l-.77,1.63c-.12.25-.31.42-.55.5-.3.09-.65.04-1.01-.17l-.56-.32c-.66-.38-1.22-1.19-1.4-2.01l-2.33-10.41c-.23-1.03-1.06-1.84-1.65-1.88-.23,0-.39.1-.49.35l-3.79,10.34c-.11.29-.3.49-.56.59-.3.11-.67.05-1.04-.16l.23-.39c.25.14.48.19.66.12.13-.05.23-.15.29-.32l3.79-10.34c.16-.44.51-.69.94-.65.77.05,1.78.96,2.07,2.23l2.33,10.41c.16.7.64,1.4,1.19,1.72l.56.32c.24.14.47.18.64.13.12-.04.22-.13.28-.26l.77-1.63c.18-.38.52-.59.93-.54.82.07,1.7.98,2,2.08.18.66.65,1.3,1.16,1.6l.49.28c.25.15.49.19.67.12.13-.05.23-.17.29-.34l.7-2.16c.14-.44.47-.69.89-.69h.04c.76.03,1.78.91,2.08,2.18l2.33,9.63c.17.69.66,1.39,1.2,1.69l-.22.4Z"/>
        </g>
        <path class="cls-9" d="m489.63,111.1c-.47,0-.96-.14-1.42-.4l-25.38-14.65c-1.57-.9-2.44-3.09-1.95-4.86.25-.9.8-1.56,1.54-1.87.73-.3,1.55-.22,2.32.23l25.38,14.65c1.57.91,2.44,3.09,1.95,4.86-.25.9-.8,1.56-1.54,1.87-.29.12-.59.18-.9.18Zm-26.3-21.5c-.25,0-.5.05-.73.14-.61.25-1.07.81-1.27,1.56-.44,1.59.34,3.54,1.74,4.35l25.38,14.65c.65.37,1.33.45,1.92.2.61-.25,1.07-.81,1.27-1.56.44-1.59-.34-3.54-1.74-4.35l-25.38-14.65c-.39-.23-.8-.34-1.19-.34Z"/>
      </g>
    </g>
  </g>
</svg>