<?xml version="1.0" encoding="utf-8"?>
<!-- Generator: Adobe Illustrator 27.5.0, SVG Export Plug-In . SVG Version: 6.00 Build 0)  -->
<svg version="1.1" id="Ebene_1" xmlns="http://www.w3.org/2000/svg" xmlns:xlink="http://www.w3.org/1999/xlink" x="0px" y="0px"
	 viewBox="0 0 16 16" style="enable-background:new 0 0 16 16;" xml:space="preserve">
<style type="text/css">
	.st0{fill:#FFFFFF;}
</style>
<path class="st0" d="M6.7,8.1c0.1-0.1,0-0.3-0.1-0.3c-0.1,0-0.1-0.1-0.2,0L4.9,8.3l0.2,0.5l0.8-0.3L5.3,9.4c-0.1,0.1,0,0.3,0.1,0.3
	c0.1,0,0.1,0.1,0.2,0l0.8-0.3l-0.6,0.9c-0.1,0.1,0,0.3,0.1,0.3c0.1,0,0.1,0.1,0.2,0l1.5-0.5L7.4,9.8L6.6,10l0.6-0.9
	c0.1-0.1,0-0.3-0.1-0.3c-0.1,0-0.1-0.1-0.2,0L6.1,9C6.1,9,6.7,8.1,6.7,8.1z"/>
<path class="st0" d="M8,16c4.4,0,8-3.6,8-8s-3.6-8-8-8S0,3.6,0,8S3.6,16,8,16z M1.8,11.2l2-1.7C2.9,7.3,4.1,4.7,6.4,3.8
	c1.7-0.7,3.7-0.2,4.9,1.2L7.5,6.5l1,2.5l1.3,3.1c-0.6,0.3-1.2,0.4-1.8,0.4c-0.5,0-1.1-0.1-1.6-0.3l-1.7,2
	C3.5,13.5,2.5,12.5,1.8,11.2z M12.5,8c0,1.4-0.6,2.7-1.7,3.5l-1.3-3l3-1.1C12.5,7.6,12.5,7.8,12.5,8z"/>
</svg>
